<svg width="212" height="24" viewBox="0 0 212 24" fill="none" xmlns="http://www.w3.org/2000/svg">
<path d="M72.8905 19L68.6245 12.862L70.5145 11.692L75.5365 19H72.8905ZM64.5565 19V6.4H66.8605V19H64.5565ZM66.1585 13.69V11.674H70.4065V13.69H66.1585ZM70.7305 12.97L68.5885 12.682L72.8905 6.4H75.3745L70.7305 12.97ZM81.0338 19.126C80.0498 19.126 79.1738 18.916 78.4058 18.496C77.6378 18.064 77.0318 17.476 76.5878 16.732C76.1438 15.988 75.9218 15.142 75.9218 14.194C75.9218 13.234 76.1438 12.388 76.5878 11.656C77.0318 10.912 77.6378 10.33 78.4058 9.91C79.1738 9.49 80.0498 9.28 81.0338 9.28C82.0298 9.28 82.9118 9.49 83.6798 9.91C84.4598 10.33 85.0658 10.906 85.4978 11.638C85.9418 12.37 86.1638 13.222 86.1638 14.194C86.1638 15.142 85.9418 15.988 85.4978 16.732C85.0658 17.476 84.4598 18.064 83.6798 18.496C82.9118 18.916 82.0298 19.126 81.0338 19.126ZM81.0338 17.2C81.5858 17.2 82.0778 17.08 82.5098 16.84C82.9418 16.6 83.2778 16.252 83.5178 15.796C83.7698 15.34 83.8958 14.806 83.8958 14.194C83.8958 13.57 83.7698 13.036 83.5178 12.592C83.2778 12.136 82.9418 11.788 82.5098 11.548C82.0778 11.308 81.5918 11.188 81.0518 11.188C80.4998 11.188 80.0078 11.308 79.5758 11.548C79.1558 11.788 78.8198 12.136 78.5678 12.592C78.3158 13.036 78.1898 13.57 78.1898 14.194C78.1898 14.806 78.3158 15.34 78.5678 15.796C78.8198 16.252 79.1558 16.6 79.5758 16.84C80.0078 17.08 80.4938 17.2 81.0338 17.2ZM88.3865 19V9.388H90.7445L94.6145 16.21H93.6785L97.7465 9.388H99.8525L99.8705 19H97.8365V11.8L98.1965 12.034L94.5965 17.992H93.6245L90.0065 11.872L90.4385 11.764V19H88.3865ZM102.888 19V9.388H105.246L109.116 16.21H108.18L112.248 9.388H114.354L114.372 19H112.338V11.8L112.698 12.034L109.098 17.992H108.126L104.508 11.872L104.94 11.764V19H102.888ZM118.254 22.618C117.786 22.618 117.318 22.54 116.85 22.384C116.382 22.228 115.992 22.012 115.68 21.736L116.58 20.08C116.808 20.284 117.066 20.446 117.354 20.566C117.642 20.686 117.936 20.746 118.236 20.746C118.644 20.746 118.974 20.644 119.226 20.44C119.478 20.236 119.712 19.894 119.928 19.414L120.486 18.154L120.666 17.884L124.302 9.388H126.462L121.962 19.774C121.662 20.494 121.326 21.064 120.954 21.484C120.594 21.904 120.186 22.198 119.73 22.366C119.286 22.534 118.794 22.618 118.254 22.618ZM120.234 19.342L115.896 9.388H118.236L121.764 17.686L120.234 19.342ZM128.025 19V9.388H130.275V13.294H135.117V9.388H137.367V19H135.117V15.202H130.275V19H128.025ZM140.383 19V9.388H142.633V15.724L147.943 9.388H149.995V19H147.745V12.664L142.453 19H140.383ZM159.915 19L156.441 14.392L158.277 13.258L162.561 19H159.915ZM153.021 19V9.388H155.271V19H153.021ZM154.605 15.148V13.276H157.863V15.148H154.605ZM158.493 14.464L156.387 14.212L159.915 9.388H162.327L158.493 14.464ZM169.804 19V17.056L169.678 16.642V13.24C169.678 12.58 169.48 12.07 169.084 11.71C168.688 11.338 168.088 11.152 167.284 11.152C166.744 11.152 166.21 11.236 165.682 11.404C165.166 11.572 164.728 11.806 164.368 12.106L163.486 10.468C164.002 10.072 164.614 9.778 165.322 9.586C166.042 9.382 166.786 9.28 167.554 9.28C168.946 9.28 170.02 9.616 170.776 10.288C171.544 10.948 171.928 11.974 171.928 13.366V19H169.804ZM166.78 19.126C166.06 19.126 165.43 19.006 164.89 18.766C164.35 18.514 163.93 18.172 163.63 17.74C163.342 17.296 163.198 16.798 163.198 16.246C163.198 15.706 163.324 15.22 163.576 14.788C163.84 14.356 164.266 14.014 164.854 13.762C165.442 13.51 166.222 13.384 167.194 13.384H169.984V14.878H167.356C166.588 14.878 166.072 15.004 165.808 15.256C165.544 15.496 165.412 15.796 165.412 16.156C165.412 16.564 165.574 16.888 165.898 17.128C166.222 17.368 166.672 17.488 167.248 17.488C167.8 17.488 168.292 17.362 168.724 17.11C169.168 16.858 169.486 16.486 169.678 15.994L170.056 17.344C169.84 17.908 169.45 18.346 168.886 18.658C168.334 18.97 167.632 19.126 166.78 19.126ZM174.713 19V9.388H176.963V17.092H181.553V9.388H183.803V19H174.713ZM183.155 21.142V18.946L183.677 19H181.553V17.092H185.261V21.142H183.155ZM187.263 19V9.388H189.513V15.724L194.823 9.388H196.875V19H194.625V12.664L189.333 19H187.263ZM199.902 19V9.388H202.152V15.724L207.462 9.388H209.514V19H207.264V12.664L201.972 19H199.902Z" fill="#222222"/>
<path d="M53.5301 7.65909L40.5347 17.5301L26.4333 9.20747M26.4333 9.20747L39.0416 2.68213M26.4333 9.20747L17.9172 20.3503M26.4333 9.20747L12.1936 4.53466L17.9172 20.3503M17.9172 20.3503L2.68213 15.8158" stroke="#999AF4"/>
<ellipse cx="17.8066" cy="20.0737" rx="3.92627" ry="3.92627" fill="#FFDC26"/>
<ellipse cx="12.1108" cy="4.36864" rx="3.48387" ry="3.48387" fill="#68A1FF"/>
<ellipse cx="2.82028" cy="15.6499" rx="2.82028" ry="2.82028" fill="#FFAF86"/>
<ellipse cx="39.2627" cy="2.82028" rx="2.82028" ry="2.82028" fill="#FF6868"/>
<ellipse cx="53.4747" cy="7.41026" rx="3.31797" ry="3.31797" fill="#90C9FF"/>
<ellipse cx="26.4331" cy="8.95852" rx="4.81106" ry="4.81106" fill="#B3ABE6"/>
<ellipse cx="40.3686" cy="16.7558" rx="7.18894" ry="7.18894" fill="#7DDF81"/>
</svg>
