<svg width="293" height="173" viewBox="0 0 293 173" fill="none" xmlns="http://www.w3.org/2000/svg">
<path d="M7.82547 130.743C10.3954 128.173 11.7709 125.382 10.8979 124.509C10.0249 123.636 7.23383 125.012 4.66394 127.582C2.09405 130.151 0.718468 132.943 1.5915 133.816C2.46453 134.689 5.25558 133.313 7.82547 130.743Z" fill="#BEDBF7"/>
<path d="M19.1078 83.7324C10.7537 92.0865 3.31437 98.2004 2.49297 97.3743C1.67156 96.5482 7.78079 89.1135 16.1349 80.7594C24.489 72.4053 31.9284 66.2914 32.7451 67.1175C33.5619 67.9436 27.462 75.3783 19.1078 83.7324Z" fill="#BEDBF7"/>
<path d="M145.362 23.0181C71.0202 23.0181 10.7539 83.2984 10.7539 157.641C10.7539 157.813 10.7539 157.986 10.7539 158.154H279.962C279.962 157.986 279.962 157.813 279.962 157.641C279.971 83.2984 219.705 23.0181 145.362 23.0181Z" fill="#FFAF86"/>
<path d="M291.363 115.959C291.363 115.959 290.43 117.826 291.923 123.935C293.417 130.044 292.297 132.55 289.683 136.345C287.07 140.139 279.318 148.26 279.784 158.154H264.85C264.85 158.154 267.552 151.527 268.299 145.273C269.045 139.019 272.896 135.285 278.72 132.298C284.545 129.311 286.416 117.919 291.363 115.959Z" fill="#65C569"/>
<path fill-rule="evenodd" clip-rule="evenodd" d="M287.159 123.905C287.484 120.798 288.905 117.908 291.167 115.753L291.559 116.165C289.396 118.226 288.037 120.991 287.726 123.963C287.492 126.465 287.186 128.704 286.379 130.861C285.57 133.023 284.261 135.089 282.041 137.262C277.677 141.533 272.508 147.905 272.508 158.154H271.938C271.938 147.681 277.233 141.171 281.643 136.855C283.81 134.734 285.069 132.738 285.846 130.661C286.625 128.579 286.926 126.403 287.159 123.908L287.159 123.905L287.159 123.905Z" fill="white"/>
<path d="M291.363 70.3565C291.363 70.3565 290.243 72.3167 291.363 77.3572C292.483 82.3976 293.169 88.6982 290.864 91.4985C288.558 94.2987 285.063 97.6591 283.803 103.544C282.542 109.429 285.483 113.625 282.402 118.666C279.322 123.706 276.377 124.476 275.799 131.234C275.22 137.992 280.424 144.433 268.098 158.154H240.137C240.137 158.154 248.93 141.632 251.455 132.952C253.98 124.271 251.875 120.206 255.795 114.255C259.716 108.305 265.176 110.116 267.556 104.59C269.937 99.0638 269.937 94.3221 273.297 90.7984C276.657 87.2748 282.122 85.898 284.279 80.5308C286.369 75.327 289.543 71.1966 291.363 70.3565Z" fill="#7DDF81"/>
<path fill-rule="evenodd" clip-rule="evenodd" d="M286.356 84.6323C286.623 80.409 286.98 74.7457 291.153 70.1647L291.574 70.5482C287.539 74.9774 287.192 80.4559 286.923 84.6987C286.911 84.8894 286.899 85.0776 286.887 85.263C286.812 86.4131 286.323 87.3607 285.619 88.2162C284.92 89.0654 283.996 89.8395 283.037 90.6379L282.987 90.6798C281.067 92.2783 278.983 94.0144 277.902 96.7824C276.913 99.3182 276.42 101.777 275.938 104.178C275.88 104.468 275.822 104.757 275.763 105.046C275.221 107.714 274.619 110.311 273.267 112.795C272.074 114.986 270.572 116.331 269.047 117.695C268.836 117.884 268.624 118.073 268.413 118.265C266.678 119.843 264.924 121.631 263.477 124.94C262.764 126.569 262.494 128.746 262.336 131.311C262.28 132.22 262.239 133.178 262.195 134.174C262.117 135.965 262.034 137.876 261.854 139.836C261.292 145.954 259.777 152.681 254.463 158.349L254.047 157.959C259.234 152.426 260.73 145.85 261.287 139.784C261.466 137.835 261.548 135.953 261.625 134.173C261.669 133.173 261.711 132.206 261.768 131.276C261.925 128.713 262.198 126.443 262.955 124.712C264.448 121.3 266.265 119.449 268.03 117.844C268.245 117.649 268.459 117.457 268.671 117.267C270.196 115.901 271.624 114.623 272.767 112.523C274.075 110.12 274.663 107.598 275.206 104.932C275.264 104.645 275.322 104.356 275.38 104.066C275.861 101.668 276.363 99.1604 277.372 96.5754C278.506 93.6698 280.689 91.8522 282.589 90.2701C282.617 90.2468 282.645 90.2236 282.673 90.2004C283.64 89.3945 284.52 88.6547 285.179 87.8544C285.832 87.0603 286.254 86.2227 286.319 85.226C286.331 85.0315 286.344 84.8336 286.356 84.6323Z" fill="white"/>
<path d="M238.11 84.6868C257.934 64.8622 257.934 32.7202 238.11 12.8956C218.285 -6.92899 186.143 -6.929 166.318 12.8956C146.494 32.7202 146.494 64.8622 166.318 84.6868C186.143 104.511 218.285 104.511 238.11 84.6868Z" fill="#DC8D64"/>
<path d="M249.308 11.6537C246.294 11.6536 243.323 12.3698 240.639 13.7433C237.956 15.1168 235.638 17.1083 233.875 19.5536C232.113 21.9989 230.956 24.8281 230.502 27.808C230.047 30.7879 230.307 33.8331 231.26 36.6927L221.735 47.2871L234.826 43.0213C236.896 45.4533 239.545 47.3249 242.529 48.4636C245.513 49.6023 248.735 49.9715 251.899 49.5372C255.063 49.1028 258.067 47.8788 260.633 45.9781C263.2 44.0774 265.247 41.5612 266.585 38.6613C267.923 35.7615 268.509 32.5714 268.29 29.3853C268.071 26.1992 267.053 23.1195 265.331 20.4302C263.608 17.7409 261.236 15.5286 258.433 13.9972C255.631 12.4659 252.488 11.6648 249.294 11.6677L249.308 11.6537Z" fill="#FFCC40"/>
<path d="M248.456 37.5651C248.314 37.5815 248.17 37.569 248.032 37.5284C247.895 37.4878 247.766 37.4199 247.655 37.3287L240.084 31.2032C239.858 31.0208 239.713 30.7557 239.682 30.4662C239.65 30.1767 239.734 29.8865 239.915 29.6595C240.096 29.4325 240.359 29.2873 240.646 29.2557C240.934 29.2242 241.223 29.3089 241.448 29.4913L248.17 34.9325L256.028 25.0977C256.211 24.8767 256.473 24.7369 256.757 24.7085C257.042 24.68 257.326 24.7652 257.549 24.9457C257.772 25.1261 257.916 25.3874 257.949 25.6732C257.982 25.959 257.903 26.2464 257.728 26.4735L249.188 37.1624C249.098 37.2749 248.988 37.3684 248.862 37.4375C248.737 37.5067 248.599 37.55 248.456 37.5651Z" fill="white"/>
<path d="M22.9252 70.3565C22.9252 70.3565 24.0453 72.3167 22.9252 77.3572C21.8051 82.3976 21.119 88.6982 23.4199 91.4985C25.7208 94.2987 29.2258 97.6591 30.4859 103.544C31.746 109.429 28.8057 113.625 31.886 118.666C34.9663 123.706 37.9066 124.476 38.4666 131.234C39.0267 137.992 33.8462 144.433 46.1673 158.154H74.1699C74.1699 158.154 65.3725 141.632 62.8522 132.952C60.332 124.271 62.4322 120.206 58.5118 114.255C54.5915 108.305 49.1263 110.116 46.7461 104.59C44.3658 99.0638 44.3658 94.3221 41.0055 90.7984C37.6452 87.2748 32.1847 85.898 30.0238 80.5308C27.919 75.327 24.7454 71.1966 22.9252 70.3565Z" fill="#7DDF81"/>
<path fill-rule="evenodd" clip-rule="evenodd" d="M27.3664 84.7108C27.097 80.4665 26.749 74.9815 22.7148 70.5479L23.136 70.1647C27.308 74.7499 27.666 80.4192 27.9328 84.644C27.9453 84.8412 27.9575 85.0352 27.9699 85.2259C28.035 86.2227 28.4561 87.0603 29.109 87.8543C29.767 88.6546 30.6464 89.3944 31.6135 90.2003C31.6414 90.2236 31.6694 90.2469 31.6975 90.2703C33.5964 91.8524 35.7781 93.6699 36.9119 96.5753C37.9207 99.1603 38.4233 101.668 38.9038 104.066C38.962 104.356 39.0199 104.645 39.0784 104.932C39.6206 107.598 40.2092 110.12 41.5172 112.523C42.6603 114.623 44.088 115.901 45.6133 117.267C45.8252 117.457 46.0389 117.648 46.2541 117.844C48.0192 119.449 49.8363 121.3 51.3289 124.712C52.0863 126.443 52.3583 128.712 52.5154 131.276C52.5723 132.205 52.6142 133.173 52.6574 134.172C52.7345 135.952 52.8159 137.835 52.9949 139.784C53.552 145.85 55.0471 152.426 60.2365 157.959L59.8212 158.349C54.505 152.68 52.9898 145.953 52.4279 139.836C52.2479 137.876 52.1651 135.964 52.0874 134.173C52.0443 133.178 52.0027 132.22 51.9471 131.311C51.7899 128.746 51.5199 126.569 50.8072 124.94C49.3595 121.631 47.6063 119.843 45.8711 118.265C45.6597 118.073 45.4479 117.884 45.2366 117.695C43.7122 116.331 42.21 114.986 41.0171 112.795C39.6648 110.311 39.0632 107.714 38.5204 105.046C38.4617 104.757 38.4037 104.468 38.3455 104.178C37.864 101.777 37.371 99.3181 36.3815 96.7823C35.3013 94.0144 33.2178 92.2783 31.2996 90.6799L31.2489 90.6377C30.2908 89.8393 29.3675 89.0652 28.6692 88.216C27.9657 87.3605 27.4768 86.4129 27.4018 85.2629C27.3899 85.0814 27.3782 84.8973 27.3664 84.7108Z" fill="white"/>
<path d="M170.07 21.7627H45.6915C42.9155 21.7627 40.665 24.0131 40.665 26.7892V126.208C40.665 128.984 42.9155 131.234 45.6915 131.234H170.07C172.846 131.234 175.096 128.984 175.096 126.208V26.7892C175.096 24.0131 172.846 21.7627 170.07 21.7627Z" fill="white"/>
<path d="M136.168 35.6845V131.234H170.07C171.402 131.234 172.68 130.705 173.622 129.763C174.565 128.822 175.095 127.545 175.096 126.212V35.6705L136.168 35.6845Z" fill="#E4EEF7"/>
<path fill-rule="evenodd" clip-rule="evenodd" d="M141.554 65.0008C141.286 65.0008 141.024 65.0803 140.801 65.2291C140.578 65.3779 140.404 65.5894 140.302 65.8369C140.199 66.0844 140.172 66.3568 140.224 66.6197C140.276 66.8826 140.405 67.1242 140.594 67.3139C140.783 67.5037 141.024 67.6331 141.287 67.6859C141.55 67.7387 141.822 67.7124 142.07 67.6104C142.318 67.5083 142.53 67.3352 142.679 67.1127C142.829 66.8903 142.909 66.6286 142.91 66.3606C142.91 66.1822 142.876 66.0055 142.808 65.8405C142.74 65.6756 142.64 65.5257 142.514 65.3993C142.388 65.273 142.238 65.1728 142.074 65.1044C141.909 65.036 141.732 65.0008 141.554 65.0008ZM140.524 64.8137C140.829 64.6101 141.187 64.5015 141.554 64.5015C141.798 64.5015 142.04 64.5496 142.265 64.6432C142.491 64.7368 142.695 64.8739 142.868 65.0467C143.04 65.2196 143.176 65.4247 143.269 65.6504C143.362 65.8761 143.41 66.118 143.409 66.362C143.408 66.7287 143.298 67.0869 143.094 67.3912C142.889 67.6956 142.599 67.9325 142.26 68.0721C141.921 68.2117 141.548 68.2477 141.189 68.1755C140.829 68.1033 140.499 67.9262 140.24 67.6665C139.981 67.4069 139.805 67.0763 139.734 66.7166C139.663 66.3569 139.7 65.9841 139.84 65.6455C139.981 65.3068 140.219 65.0174 140.524 64.8137Z" fill="#3A65C9"/>
<path fill-rule="evenodd" clip-rule="evenodd" d="M169.613 66.6111H145.502V66.1117H169.613V66.6111Z" fill="#3A65C9"/>
<path fill-rule="evenodd" clip-rule="evenodd" d="M141.554 77.9987C140.805 77.9987 140.198 78.6057 140.198 79.3545C140.198 80.1033 140.805 80.7103 141.554 80.7103C142.303 80.7103 142.91 80.1033 142.91 79.3545C142.91 78.6057 142.303 77.9987 141.554 77.9987ZM139.699 79.3545C139.699 78.3299 140.529 77.4993 141.554 77.4993C142.578 77.4993 143.409 78.3299 143.409 79.3545C143.409 80.3791 142.578 81.2097 141.554 81.2097C140.529 81.2097 139.699 80.3791 139.699 79.3545Z" fill="#3A65C9"/>
<path fill-rule="evenodd" clip-rule="evenodd" d="M169.613 79.6042H145.502V79.1048H169.613V79.6042Z" fill="#3A65C9"/>
<path fill-rule="evenodd" clip-rule="evenodd" d="M141.554 90.9921C140.805 90.9921 140.198 91.5991 140.198 92.3479C140.198 93.0967 140.805 93.7037 141.554 93.7037C142.303 93.7037 142.91 93.0967 142.91 92.3479C142.91 91.5991 142.303 90.9921 141.554 90.9921ZM139.699 92.3479C139.699 91.3233 140.529 90.4927 141.554 90.4927C142.578 90.4927 143.409 91.3233 143.409 92.3479C143.409 93.3725 142.578 94.2031 141.554 94.2031C140.529 94.2031 139.699 93.3725 139.699 92.3479Z" fill="#3A65C9"/>
<path fill-rule="evenodd" clip-rule="evenodd" d="M169.613 92.5975H145.502V92.0981H169.613V92.5975Z" fill="#3A65C9"/>
<path fill-rule="evenodd" clip-rule="evenodd" d="M59.9309 55.6167C59.5913 57.7655 61.058 59.7828 63.2068 60.1223C65.3556 60.4619 67.3728 58.9952 67.7124 56.8464C68.052 54.6976 66.5853 52.6804 64.4365 52.3408C62.2877 52.0013 60.2705 53.4679 59.9309 55.6167ZM63.134 60.5833C60.7306 60.2035 59.0901 57.9473 59.4699 55.5439C59.8497 53.1405 62.106 51.5 64.5094 51.8798C66.9128 52.2596 68.5532 54.5159 68.1734 56.9193C67.7936 59.3227 65.5374 60.9631 63.134 60.5833Z" fill="#3A65C9"/>
<path fill-rule="evenodd" clip-rule="evenodd" d="M73.5786 53.4467C72.0404 54.985 72.0404 57.479 73.5786 59.0173C75.1169 60.5556 77.611 60.5556 79.1493 59.0173C80.6876 57.479 80.6876 54.985 79.1493 53.4467C77.611 51.9084 75.1169 51.9084 73.5786 53.4467ZM73.2486 59.3473C71.5281 57.6268 71.5281 54.8372 73.2486 53.1167C74.9692 51.3961 77.7587 51.3961 79.4793 53.1167C81.1998 54.8372 81.1998 57.6268 79.4793 59.3473C77.7587 61.0679 74.9692 61.0679 73.2486 59.3473Z" fill="#3A65C9"/>
<path fill-rule="evenodd" clip-rule="evenodd" d="M85.071 55.3279C84.5731 57.4457 85.8863 59.566 88.004 60.0639C90.1218 60.5618 92.2421 59.2487 92.74 57.1309C93.2379 55.0132 91.9247 52.8928 89.807 52.3949C87.6893 51.8971 85.5689 53.2102 85.071 55.3279ZM87.8972 60.5182C85.5286 59.9614 84.0598 57.5898 84.6167 55.2211C85.1736 52.8525 87.5452 51.3838 89.9138 51.9406C92.2825 52.4975 93.7512 54.8691 93.1943 57.2377C92.6375 59.6064 90.2659 61.0751 87.8972 60.5182Z" fill="#3A65C9"/>
<path fill-rule="evenodd" clip-rule="evenodd" d="M97.5564 55.5967C97.209 57.7443 98.6683 59.7669 100.816 60.1143C102.963 60.4618 104.986 59.0025 105.333 56.8549C105.681 54.7074 104.222 52.6848 102.074 52.3374C99.9265 51.9899 97.9039 53.4492 97.5564 55.5967ZM100.741 60.575C98.3393 60.1864 96.7071 57.9242 97.0957 55.5222C97.4843 53.1202 99.7466 51.488 102.149 51.8767C104.551 52.2653 106.183 54.5275 105.794 56.9295C105.406 59.3315 103.143 60.9636 100.741 60.575Z" fill="#3A65C9"/>
<path fill-rule="evenodd" clip-rule="evenodd" d="M110.097 55.5991C109.75 57.7467 111.209 59.7693 113.357 60.1167C115.504 60.4641 117.527 59.0049 117.874 56.8573C118.222 54.7098 116.763 52.6872 114.615 52.3398C112.467 51.9923 110.445 53.4516 110.097 55.5991ZM113.282 60.5774C110.88 60.1888 109.248 57.9266 109.637 55.5246C110.025 53.1226 112.288 51.4904 114.69 51.879C117.092 52.2676 118.724 54.5299 118.335 56.9319C117.947 59.3339 115.684 60.966 113.282 60.5774Z" fill="#3A65C9"/>
<path fill-rule="evenodd" clip-rule="evenodd" d="M122.656 55.5956C122.302 57.742 123.754 59.7694 125.9 60.124C128.047 60.4785 130.074 59.026 130.429 56.8796C130.783 54.7332 129.331 52.7058 127.184 52.3512C125.038 51.9967 123.011 53.4492 122.656 55.5956ZM125.824 60.5844C123.424 60.1879 121.799 57.9202 122.196 55.5196C122.592 53.1189 124.86 51.4942 127.26 51.8908C129.661 52.2873 131.286 54.555 130.889 56.9557C130.493 59.3564 128.225 60.981 125.824 60.5844Z" fill="#3A65C9"/>
<path fill-rule="evenodd" clip-rule="evenodd" d="M51.2783 66.849C49.1028 66.849 47.3393 68.6126 47.3393 70.7881C47.3393 72.9635 49.1028 74.7271 51.2783 74.7271C53.4538 74.7271 55.2173 72.9635 55.2173 70.7881C55.2173 68.6126 53.4538 66.849 51.2783 66.849ZM46.8726 70.7881C46.8726 68.3548 48.8451 66.3823 51.2783 66.3823C53.7115 66.3823 55.684 68.3548 55.684 70.7881C55.684 73.2213 53.7115 75.1938 51.2783 75.1938C48.8451 75.1938 46.8726 73.2213 46.8726 70.7881Z" fill="#3A65C9"/>
<path fill-rule="evenodd" clip-rule="evenodd" d="M63.8183 66.849C61.6429 66.849 59.8793 68.6126 59.8793 70.7881C59.8793 72.9635 61.6429 74.7271 63.8183 74.7271C65.9938 74.7271 67.7574 72.9635 67.7574 70.7881C67.7574 68.6126 65.9938 66.849 63.8183 66.849ZM59.4126 70.7881C59.4126 68.3548 61.3851 66.3823 63.8183 66.3823C66.2516 66.3823 68.2241 68.3548 68.2241 70.7881C68.2241 73.2213 66.2516 75.1938 63.8183 75.1938C61.3851 75.1938 59.4126 73.2213 59.4126 70.7881Z" fill="#3A65C9"/>
<path fill-rule="evenodd" clip-rule="evenodd" d="M76.3642 66.849C74.1888 66.849 72.4252 68.6126 72.4252 70.7881C72.4252 72.9635 74.1888 74.7271 76.3642 74.7271C78.5397 74.7271 80.3033 72.9635 80.3033 70.7881C80.3033 68.6126 78.5397 66.849 76.3642 66.849ZM71.9585 70.7881C71.9585 68.3548 73.931 66.3823 76.3642 66.3823C78.7975 66.3823 80.77 68.3548 80.77 70.7881C80.77 73.2213 78.7975 75.1938 76.3642 75.1938C73.931 75.1938 71.9585 73.2213 71.9585 70.7881Z" fill="#3A65C9"/>
<path d="M88.9038 74.9604C91.2082 74.9604 93.0762 73.0924 93.0762 70.7881C93.0762 68.4837 91.2082 66.6157 88.9038 66.6157C86.5995 66.6157 84.7314 68.4837 84.7314 70.7881C84.7314 73.0924 86.5995 74.9604 88.9038 74.9604Z" fill="url(#paint0_linear_159_4056)"/>
<path fill-rule="evenodd" clip-rule="evenodd" d="M101.45 66.849C99.2742 66.849 97.5107 68.6126 97.5107 70.7881C97.5107 72.9635 99.2742 74.7271 101.45 74.7271C103.625 74.7271 105.389 72.9635 105.389 70.7881C105.389 68.6126 103.625 66.849 101.45 66.849ZM97.0439 70.7881C97.0439 68.3548 99.0165 66.3823 101.45 66.3823C103.883 66.3823 105.855 68.3548 105.855 70.7881C105.855 73.2213 103.883 75.1938 101.45 75.1938C99.0165 75.1938 97.0439 73.2213 97.0439 70.7881Z" fill="#3A65C9"/>
<path fill-rule="evenodd" clip-rule="evenodd" d="M113.99 66.849C111.815 66.849 110.051 68.6126 110.051 70.7881C110.051 72.9635 111.815 74.7271 113.99 74.7271C116.166 74.7271 117.929 72.9635 117.929 70.7881C117.929 68.6126 116.166 66.849 113.99 66.849ZM109.584 70.7881C109.584 68.3548 111.557 66.3823 113.99 66.3823C116.423 66.3823 118.396 68.3548 118.396 70.7881C118.396 73.2213 116.423 75.1938 113.99 75.1938C111.557 75.1938 109.584 73.2213 109.584 70.7881Z" fill="#3A65C9"/>
<path fill-rule="evenodd" clip-rule="evenodd" d="M126.535 66.849C124.36 66.849 122.596 68.6126 122.596 70.7881C122.596 72.9635 124.36 74.7271 126.535 74.7271C128.711 74.7271 130.474 72.9635 130.474 70.7881C130.474 68.6126 128.711 66.849 126.535 66.849ZM122.129 70.7881C122.129 68.3548 124.102 66.3823 126.535 66.3823C128.968 66.3823 130.941 68.3548 130.941 70.7881C130.941 73.2213 128.968 75.1938 126.535 75.1938C124.102 75.1938 122.129 73.2213 122.129 70.7881Z" fill="#3A65C9"/>
<path fill-rule="evenodd" clip-rule="evenodd" d="M51.2783 81.401C49.1028 81.401 47.3393 83.1646 47.3393 85.3401C47.3393 87.5155 49.1028 89.2791 51.2783 89.2791C53.4538 89.2791 55.2173 87.5155 55.2173 85.3401C55.2173 83.1646 53.4538 81.401 51.2783 81.401ZM46.8726 85.3401C46.8726 82.9068 48.8451 80.9343 51.2783 80.9343C53.7115 80.9343 55.684 82.9068 55.684 85.3401C55.684 87.7733 53.7115 89.7458 51.2783 89.7458C48.8451 89.7458 46.8726 87.7733 46.8726 85.3401Z" fill="#3A65C9"/>
<path fill-rule="evenodd" clip-rule="evenodd" d="M63.8183 81.401C61.6429 81.401 59.8793 83.1646 59.8793 85.3401C59.8793 87.5155 61.6429 89.2791 63.8183 89.2791C65.9938 89.2791 67.7574 87.5155 67.7574 85.3401C67.7574 83.1646 65.9938 81.401 63.8183 81.401ZM59.4126 85.3401C59.4126 82.9068 61.3851 80.9343 63.8183 80.9343C66.2516 80.9343 68.2241 82.9068 68.2241 85.3401C68.2241 87.7733 66.2516 89.7458 63.8183 89.7458C61.3851 89.7458 59.4126 87.7733 59.4126 85.3401Z" fill="#3A65C9"/>
<path fill-rule="evenodd" clip-rule="evenodd" d="M76.3642 81.401C74.1888 81.401 72.4252 83.1646 72.4252 85.3401C72.4252 87.5155 74.1888 89.2791 76.3642 89.2791C78.5397 89.2791 80.3033 87.5155 80.3033 85.3401C80.3033 83.1646 78.5397 81.401 76.3642 81.401ZM71.9585 85.3401C71.9585 82.9068 73.931 80.9343 76.3642 80.9343C78.7975 80.9343 80.77 82.9068 80.77 85.3401C80.77 87.7733 78.7975 89.7458 76.3642 89.7458C73.931 89.7458 71.9585 87.7733 71.9585 85.3401Z" fill="#3A65C9"/>
<path fill-rule="evenodd" clip-rule="evenodd" d="M88.9043 81.401C86.7288 81.401 84.9652 83.1646 84.9652 85.3401C84.9652 87.5155 86.7288 89.2791 88.9043 89.2791C91.0797 89.2791 92.8433 87.5155 92.8433 85.3401C92.8433 83.1646 91.0797 81.401 88.9043 81.401ZM84.4985 85.3401C84.4985 82.9068 86.4711 80.9343 88.9043 80.9343C91.3375 80.9343 93.31 82.9068 93.31 85.3401C93.31 87.7733 91.3375 89.7458 88.9043 89.7458C86.4711 89.7458 84.4985 87.7733 84.4985 85.3401Z" fill="#3A65C9"/>
<path fill-rule="evenodd" clip-rule="evenodd" d="M101.45 81.401C99.2742 81.401 97.5107 83.1646 97.5107 85.3401C97.5107 87.5155 99.2742 89.2791 101.45 89.2791C103.625 89.2791 105.389 87.5155 105.389 85.3401C105.389 83.1646 103.625 81.401 101.45 81.401ZM97.0439 85.3401C97.0439 82.9068 99.0165 80.9343 101.45 80.9343C103.883 80.9343 105.855 82.9068 105.855 85.3401C105.855 87.7733 103.883 89.7458 101.45 89.7458C99.0165 89.7458 97.0439 87.7733 97.0439 85.3401Z" fill="#3A65C9"/>
<path fill-rule="evenodd" clip-rule="evenodd" d="M113.99 81.401C111.815 81.401 110.051 83.1646 110.051 85.3401C110.051 87.5155 111.815 89.2791 113.99 89.2791C116.166 89.2791 117.929 87.5155 117.929 85.3401C117.929 83.1646 116.166 81.401 113.99 81.401ZM109.584 85.3401C109.584 82.9068 111.557 80.9343 113.99 80.9343C116.423 80.9343 118.396 82.9068 118.396 85.3401C118.396 87.7733 116.423 89.7458 113.99 89.7458C111.557 89.7458 109.584 87.7733 109.584 85.3401Z" fill="#3A65C9"/>
<path fill-rule="evenodd" clip-rule="evenodd" d="M126.535 81.401C124.36 81.401 122.596 83.1646 122.596 85.3401C122.596 87.5155 124.36 89.2791 126.535 89.2791C128.711 89.2791 130.474 87.5155 130.474 85.3401C130.474 83.1646 128.711 81.401 126.535 81.401ZM122.129 85.3401C122.129 82.9068 124.102 80.9343 126.535 80.9343C128.968 80.9343 130.941 82.9068 130.941 85.3401C130.941 87.7733 128.968 89.7458 126.535 89.7458C124.102 89.7458 122.129 87.7733 122.129 85.3401Z" fill="#3A65C9"/>
<path fill-rule="evenodd" clip-rule="evenodd" d="M49.7734 96.2557C47.7635 97.0882 46.8091 99.3924 47.6416 101.402C48.4741 103.412 50.7783 104.367 52.7882 103.534C54.7981 102.702 55.7525 100.397 54.92 98.3875C54.0875 96.3776 51.7833 95.4232 49.7734 96.2557ZM47.2104 101.581C46.2793 99.3329 47.3468 96.7557 49.5948 95.8245C51.8428 94.8933 54.42 95.9609 55.3512 98.2089C56.2823 100.457 55.2148 103.034 52.9668 103.965C50.7188 104.896 48.1416 103.829 47.2104 101.581Z" fill="#3A65C9"/>
<path fill-rule="evenodd" clip-rule="evenodd" d="M62.388 96.2291C60.3615 97.0204 59.3602 99.3047 60.1515 101.331C60.9428 103.358 63.2271 104.359 65.2535 103.568C67.28 102.776 68.2813 100.492 67.49 98.4655C66.6987 96.4391 64.4144 95.4378 62.388 96.2291ZM59.7168 101.501C58.8317 99.2343 59.9517 96.6794 62.2182 95.7944C64.4848 94.9093 67.0396 96.0292 67.9247 98.2958C68.8098 100.562 67.6898 103.117 65.4233 104.002C63.1567 104.887 60.6019 103.767 59.7168 101.501Z" fill="#3A65C9"/>
<path fill-rule="evenodd" clip-rule="evenodd" d="M72.5275 98.9739C72.026 101.091 73.3354 103.213 75.4523 103.715C77.5691 104.217 79.6918 102.907 80.1934 100.79C80.6949 98.6735 79.3855 96.5508 77.2686 96.0492C75.1518 95.5476 73.0291 96.8571 72.5275 98.9739ZM75.3447 104.169C72.977 103.608 71.5124 101.234 72.0734 98.8663C72.6344 96.4987 75.0086 95.0341 77.3762 95.5951C79.7439 96.1561 81.2085 98.5302 80.6475 100.898C80.0865 103.266 77.7123 104.73 75.3447 104.169Z" fill="#3A65C9"/>
<path fill-rule="evenodd" clip-rule="evenodd" d="M86.1177 97.1108C84.5794 98.6491 84.5794 101.143 86.1177 102.681C87.656 104.22 90.1501 104.22 91.6883 102.681C93.2266 101.143 93.2266 98.6491 91.6883 97.1108C90.1501 95.5725 87.656 95.5725 86.1177 97.1108ZM85.7877 103.011C84.0671 101.291 84.0671 98.5013 85.7877 96.7808C87.5082 95.0602 90.2978 95.0602 92.0184 96.7808C93.7389 98.5013 93.7389 101.291 92.0184 103.011C90.2978 104.732 87.5082 104.732 85.7877 103.011Z" fill="#3A65C9"/>
<path fill-rule="evenodd" clip-rule="evenodd" d="M99.9491 96.2577C97.9373 97.0857 96.9777 99.3877 97.8056 101.399C98.6336 103.411 100.936 104.371 102.947 103.543C104.959 102.715 105.919 100.413 105.091 98.4012C104.263 96.3894 101.961 95.4298 99.9491 96.2577ZM97.374 101.577C96.448 99.327 97.5213 96.7522 99.7715 95.8261C102.022 94.9001 104.596 95.9734 105.522 98.2236C106.448 100.474 105.375 103.048 103.125 103.975C100.875 104.901 98.3001 103.827 97.374 101.577Z" fill="#3A65C9"/>
<path fill-rule="evenodd" clip-rule="evenodd" d="M112.488 96.2594C110.476 97.0874 109.517 99.3894 110.345 101.401C111.173 103.413 113.475 104.373 115.486 103.545C117.498 102.717 118.458 100.415 117.63 98.4029C116.802 96.3911 114.5 95.4314 112.488 96.2594ZM109.913 101.579C108.987 99.3287 110.06 96.7539 112.311 95.8278C114.561 94.9018 117.135 95.9751 118.061 98.2252C118.988 100.475 117.914 103.05 115.664 103.976C113.414 104.902 110.839 103.829 109.913 101.579Z" fill="#3A65C9"/>
<path fill-rule="evenodd" clip-rule="evenodd" d="M124.982 99.7957C122.984 100.657 122.062 102.974 122.923 104.972C123.784 106.97 126.101 107.892 128.099 107.031C130.097 106.17 131.019 103.852 130.158 101.855C129.297 99.8566 126.98 98.9348 124.982 99.7957ZM122.494 105.157C121.532 102.922 122.562 100.33 124.797 99.3671C127.032 98.4042 129.624 99.4352 130.587 101.67C131.549 103.904 130.518 106.496 128.284 107.459C126.049 108.422 123.457 107.391 122.494 105.157Z" fill="#3A65C9"/>
<path fill-rule="evenodd" clip-rule="evenodd" d="M51.2783 110.51C49.1028 110.51 47.3393 112.273 47.3393 114.449C47.3393 116.624 49.1028 118.388 51.2783 118.388C53.4538 118.388 55.2173 116.624 55.2173 114.449C55.2173 112.273 53.4538 110.51 51.2783 110.51ZM46.8726 114.449C46.8726 112.016 48.8451 110.043 51.2783 110.043C53.7115 110.043 55.684 112.016 55.684 114.449C55.684 116.882 53.7115 118.855 51.2783 118.855C48.8451 118.855 46.8726 116.882 46.8726 114.449Z" fill="#3A65C9"/>
<path fill-rule="evenodd" clip-rule="evenodd" d="M63.8183 110.51C61.6429 110.51 59.8793 112.273 59.8793 114.449C59.8793 116.624 61.6429 118.388 63.8183 118.388C65.9938 118.388 67.7574 116.624 67.7574 114.449C67.7574 112.273 65.9938 110.51 63.8183 110.51ZM59.4126 114.449C59.4126 112.016 61.3851 110.043 63.8183 110.043C66.2516 110.043 68.2241 112.016 68.2241 114.449C68.2241 116.882 66.2516 118.855 63.8183 118.855C61.3851 118.855 59.4126 116.882 59.4126 114.449Z" fill="#3A65C9"/>
<path fill-rule="evenodd" clip-rule="evenodd" d="M76.3642 110.51C74.1888 110.51 72.4252 112.273 72.4252 114.449C72.4252 116.624 74.1888 118.388 76.3642 118.388C78.5397 118.388 80.3033 116.624 80.3033 114.449C80.3033 112.273 78.5397 110.51 76.3642 110.51ZM71.9585 114.449C71.9585 112.016 73.931 110.043 76.3642 110.043C78.7975 110.043 80.77 112.016 80.77 114.449C80.77 116.882 78.7975 118.855 76.3642 118.855C73.931 118.855 71.9585 116.882 71.9585 114.449Z" fill="#3A65C9"/>
<path d="M45.7101 21.7627H170.07C171.403 21.7627 172.681 22.2923 173.624 23.2349C174.567 24.1776 175.096 25.4561 175.096 26.7892V39.8197H40.6836V26.7892C40.6836 26.1291 40.8136 25.4755 41.0662 24.8656C41.3188 24.2558 41.6891 23.7017 42.1558 23.2349C42.6226 22.7682 43.1767 22.3979 43.7865 22.1453C44.3964 21.8927 45.05 21.7627 45.7101 21.7627V21.7627Z" fill="#FFCC40"/>
<path fill-rule="evenodd" clip-rule="evenodd" d="M72.4371 14.2407C70.9494 13.6245 69.3124 13.4632 67.733 13.7774C66.1537 14.0915 64.703 14.8669 63.5643 16.0056C62.4257 17.1442 61.6502 18.595 61.3361 20.1743C61.0219 21.7537 61.1832 23.3907 61.7994 24.8784C62.4156 26.3661 63.4592 27.6377 64.7981 28.5323C66.137 29.4269 67.7111 29.9044 69.3214 29.9044C69.5959 29.9044 69.8184 30.127 69.8184 30.4015C69.8184 30.676 69.5959 30.8985 69.3214 30.8985C67.5145 30.8985 65.7482 30.3627 64.2458 29.3589C62.7434 28.355 61.5724 26.9282 60.881 25.2588C60.1895 23.5895 60.0086 21.7525 60.3611 19.9804C60.7136 18.2082 61.5837 16.5803 62.8614 15.3027C64.139 14.025 65.7669 13.1549 67.5391 12.8024C69.3113 12.4499 71.1482 12.6308 72.8175 13.3223C74.4869 14.0137 75.9137 15.1847 76.9176 16.6871C77.9214 18.1895 78.4572 19.9558 78.4572 21.7627C78.4572 22.0372 78.2347 22.2597 77.9602 22.2597C77.6857 22.2597 77.4632 22.0372 77.4632 21.7627C77.4632 20.1524 76.9856 18.5783 76.091 17.2394C75.1964 15.9005 73.9248 14.8569 72.4371 14.2407Z" fill="white"/>
<path fill-rule="evenodd" clip-rule="evenodd" d="M85.2901 14.2407C83.8024 13.6245 82.1654 13.4632 80.586 13.7774C79.0067 14.0915 77.556 14.8669 76.4173 16.0056C75.2787 17.1442 74.5033 18.595 74.1891 20.1743C73.875 21.7537 74.0362 23.3907 74.6524 24.8784C75.2687 26.3661 76.3122 27.6377 77.6511 28.5323C78.99 29.4269 80.5641 29.9044 82.1744 29.9044C82.4489 29.9044 82.6715 30.127 82.6715 30.4015C82.6715 30.676 82.4489 30.8985 82.1744 30.8985C80.3675 30.8985 78.6012 30.3627 77.0988 29.3589C75.5964 28.355 74.4255 26.9282 73.734 25.2588C73.0425 23.5895 72.8616 21.7525 73.2141 19.9804C73.5666 18.2082 74.4367 16.5803 75.7144 15.3027C76.9921 14.025 78.6199 13.1549 80.3921 12.8024C82.1643 12.4499 84.0012 12.6308 85.6706 13.3223C87.3399 14.0137 88.7667 15.1847 89.7706 16.6871C90.7745 18.1895 91.3103 19.9558 91.3103 21.7627C91.3103 22.0372 91.0877 22.2597 90.8132 22.2597C90.5387 22.2597 90.3162 22.0372 90.3162 21.7627C90.3162 20.1524 89.8387 18.5783 88.9441 17.2394C88.0494 15.9005 86.7779 14.8569 85.2901 14.2407Z" fill="white"/>
<path fill-rule="evenodd" clip-rule="evenodd" d="M98.1432 14.2407C96.6555 13.6245 95.0184 13.4632 93.4391 13.7774C91.8597 14.0915 90.409 14.8669 89.2704 16.0056C88.1317 17.1442 87.3563 18.595 87.0421 20.1743C86.728 21.7537 86.8892 23.3907 87.5054 24.8784C88.1217 26.3661 89.1652 27.6377 90.5041 28.5323C91.843 29.4269 93.4172 29.9044 95.0275 29.9044C95.302 29.9044 95.5245 30.127 95.5245 30.4015C95.5245 30.676 95.302 30.8985 95.0275 30.8985C93.2206 30.8985 91.4542 30.3627 89.9518 29.3589C88.4495 28.355 87.2785 26.9282 86.587 25.2588C85.8956 23.5895 85.7146 21.7525 86.0671 19.9804C86.4197 18.2082 87.2898 16.5803 88.5674 15.3027C89.8451 14.025 91.473 13.1549 93.2451 12.8024C95.0173 12.4499 96.8542 12.6308 98.5236 13.3223C100.193 14.0137 101.62 15.1847 102.624 16.6871C103.627 18.1895 104.163 19.9558 104.163 21.7627C104.163 22.0372 103.941 22.2597 103.666 22.2597C103.392 22.2597 103.169 22.0372 103.169 21.7627C103.169 20.1524 102.692 18.5783 101.797 17.2394C100.902 15.9005 99.6309 14.8569 98.1432 14.2407Z" fill="white"/>
<path fill-rule="evenodd" clip-rule="evenodd" d="M110.997 14.2407C109.509 13.6245 107.872 13.4632 106.293 13.7774C104.713 14.0915 103.263 14.8669 102.124 16.0056C100.985 17.1442 100.21 18.595 99.8957 20.1743C99.5815 21.7537 99.7427 23.3907 100.359 24.8784C100.975 26.3661 102.019 27.6377 103.358 28.5323C104.697 29.4269 106.271 29.9044 107.881 29.9044C108.155 29.9044 108.378 30.127 108.378 30.4015C108.378 30.676 108.155 30.8985 107.881 30.8985C106.074 30.8985 104.308 30.3627 102.805 29.3589C101.303 28.355 100.132 26.9282 99.4405 25.2588C98.7491 23.5895 98.5682 21.7525 98.9207 19.9804C99.2732 18.2082 100.143 16.5803 101.421 15.3027C102.699 14.025 104.326 13.1549 106.099 12.8024C107.871 12.4499 109.708 12.6308 111.377 13.3223C113.046 14.0137 114.473 15.1847 115.477 16.6871C116.481 18.1895 117.017 19.9558 117.017 21.7627C117.017 22.0372 116.794 22.2597 116.52 22.2597C116.245 22.2597 116.023 22.0372 116.023 21.7627C116.023 20.1524 115.545 18.5783 114.651 17.2394C113.756 15.9005 112.484 14.8569 110.997 14.2407Z" fill="white"/>
<path fill-rule="evenodd" clip-rule="evenodd" d="M123.844 14.2403C122.356 13.6242 120.719 13.4632 119.139 13.7777C117.56 14.0922 116.109 14.8681 114.97 16.0071C113.832 17.1462 113.057 18.5974 112.743 20.177C112.43 21.7566 112.591 23.3938 113.208 24.8814C113.825 26.3691 114.87 27.6403 116.209 28.5344C117.548 29.4285 119.123 29.9053 120.734 29.9044C121.008 29.9043 121.231 30.1267 121.231 30.4012C121.231 30.6757 121.009 30.8984 120.734 30.8985C118.927 30.8995 117.16 30.3645 115.657 29.3613C114.154 28.358 112.982 26.9315 112.29 25.2622C111.598 23.593 111.416 21.7559 111.768 19.9834C112.12 18.2109 112.99 16.5826 114.267 15.3044C115.545 14.0262 117.173 13.1556 118.945 12.8027C120.717 12.4498 122.554 12.6305 124.224 13.3218C125.894 14.0131 127.321 15.1841 128.325 16.6866C129.329 18.1891 129.865 19.9556 129.865 21.7627C129.865 22.0372 129.642 22.2597 129.368 22.2597C129.093 22.2597 128.871 22.0372 128.871 21.7627C128.871 20.1522 128.393 18.5779 127.498 17.2389C126.604 15.8999 125.332 14.8564 123.844 14.2403Z" fill="white"/>
<path fill-rule="evenodd" clip-rule="evenodd" d="M136.698 14.2407C135.211 13.6245 133.574 13.4632 131.994 13.7774C130.415 14.0915 128.964 14.8669 127.826 16.0056C126.687 17.1442 125.911 18.595 125.597 20.1743C125.283 21.7537 125.444 23.3907 126.061 24.8784C126.677 26.3661 127.72 27.6377 129.059 28.5323C130.398 29.4269 131.972 29.9044 133.583 29.9044C133.857 29.9044 134.08 30.127 134.08 30.4015C134.08 30.676 133.857 30.8985 133.583 30.8985C131.776 30.8985 130.009 30.3627 128.507 29.3589C127.005 28.355 125.834 26.9282 125.142 25.2588C124.451 23.5895 124.27 21.7525 124.622 19.9804C124.975 18.2082 125.845 16.5803 127.123 15.3027C128.4 14.025 130.028 13.1549 131.8 12.8024C133.572 12.4499 135.409 12.6308 137.079 13.3223C138.748 14.0137 140.175 15.1847 141.179 16.6871C142.183 18.1895 142.718 19.9558 142.718 21.7627C142.718 22.0372 142.496 22.2597 142.221 22.2597C141.947 22.2597 141.724 22.0372 141.724 21.7627C141.724 20.1524 141.247 18.5783 140.352 17.2394C139.458 15.9005 138.186 14.8569 136.698 14.2407Z" fill="white"/>
<path fill-rule="evenodd" clip-rule="evenodd" d="M149.551 14.2407C148.064 13.6245 146.427 13.4632 144.847 13.7774C143.268 14.0915 141.817 14.8669 140.679 16.0056C139.54 17.1442 138.764 18.595 138.45 20.1743C138.136 21.7536 138.297 23.3907 138.914 24.8784C139.53 26.3661 140.573 27.6377 141.912 28.5323C143.251 29.4269 144.825 29.9044 146.436 29.9044C146.71 29.9044 146.933 30.127 146.933 30.4015C146.933 30.676 146.71 30.8985 146.436 30.8985C144.629 30.8985 142.862 30.3627 141.36 29.3589C139.858 28.355 138.687 26.9282 137.995 25.2588C137.304 23.5895 137.123 21.7526 137.475 19.9804C137.828 18.2082 138.698 16.5803 139.976 15.3027C141.253 14.025 142.881 13.1549 144.653 12.8024C146.426 12.4499 148.262 12.6308 149.932 13.3223C151.601 14.0137 153.028 15.1847 154.032 16.6871C155.036 18.1895 155.572 19.9558 155.572 21.7627C155.572 22.0372 155.349 22.2597 155.074 22.2597C154.8 22.2597 154.577 22.0372 154.577 21.7627C154.577 20.1524 154.1 18.5783 153.205 17.2394C152.311 15.9005 151.039 14.8569 149.551 14.2407Z" fill="white"/>
<path d="M186.087 12.2144C192.156 6.14506 192.156 -3.69524 186.087 -9.76455C180.017 -15.8339 170.177 -15.8339 164.108 -9.76455C158.038 -3.69524 158.038 6.14506 164.108 12.2144C170.177 18.2837 180.017 18.2837 186.087 12.2144Z" fill="#68A1FF"/>
<path d="M175.096 13.0818C181.643 13.0818 186.951 7.77438 186.951 1.22736C186.951 -5.31966 181.643 -10.6271 175.096 -10.6271C168.549 -10.6271 163.242 -5.31966 163.242 1.22736C163.242 7.77438 168.549 13.0818 175.096 13.0818Z" fill="white"/>
<path fill-rule="evenodd" clip-rule="evenodd" d="M168.121 -4.46813C168.295 -4.68076 168.608 -4.71238 168.821 -4.53875L175.411 0.842414C175.526 0.936812 175.593 1.07816 175.593 1.22741V11.8311C175.593 12.1056 175.371 12.3281 175.096 12.3281C174.822 12.3281 174.599 12.1056 174.599 11.8311V1.46324L168.192 -3.76876C167.979 -3.94239 167.948 -4.25551 168.121 -4.46813Z" fill="#FFCC40"/>
<path d="M220.605 52.0801C224.283 53.2749 231.988 56.3365 239.488 59.3981C245.226 61.7446 250.23 65.5843 253.983 70.5183C257.735 75.4524 260.098 81.3009 260.826 87.4567C262.749 103.661 264.719 121.06 265.335 126.348C266.679 137.852 258.978 149.053 252.813 149.893L255.198 158.154H190.498L175.236 109.565C175.236 109.565 163.895 133.512 159.27 140.232C154.645 146.953 141.489 151.993 131.408 138.272C121.327 124.551 112.221 105.136 112.221 105.136L126.983 96.1328L142.469 115.044L153.618 83.8957C155.227 79.4037 157.736 75.287 160.99 71.7971C164.244 68.3073 168.175 65.5175 172.543 63.5985L189.168 56.2991L220.605 52.0801Z" fill="#3A65C9"/>
<path d="M222.593 52.7708C221.842 52.5001 221.165 52.2668 220.591 52.0801L189.154 56.2805L187.124 57.1812C192.533 64.6812 213.325 68.2562 222.593 52.7708Z" fill="#FFCC40"/>
<path d="M211.117 107.744H195.697L191.771 79.3638H207.192L211.117 107.744Z" fill="white"/>
<path fill-rule="evenodd" clip-rule="evenodd" d="M208.977 106.556L205.383 80.5607L205.883 80.4916L209.476 106.487L208.977 106.556Z" fill="#283847"/>
<path d="M195.151 82.0803C195.169 82.1829 195.164 82.2881 195.136 82.3885C195.109 82.4889 195.059 82.582 194.991 82.661C194.924 82.74 194.839 82.8029 194.744 82.8454C194.649 82.8878 194.546 82.9087 194.442 82.9064C194.214 82.8984 193.997 82.8116 193.827 82.6609C193.656 82.5102 193.544 82.3049 193.508 82.0803C193.49 81.9774 193.495 81.8717 193.523 81.771C193.551 81.6702 193.601 81.5769 193.669 81.4978C193.737 81.4188 193.823 81.3559 193.918 81.3138C194.014 81.2716 194.118 81.2513 194.222 81.2542C194.449 81.2633 194.665 81.3506 194.834 81.5012C195.004 81.6518 195.116 81.8565 195.151 82.0803Z" fill="#283847"/>
<path d="M197.71 82.6756C198 82.3647 197.945 81.8417 197.587 81.5076C197.229 81.1735 196.703 81.1547 196.413 81.4656C196.123 81.7766 196.178 82.2995 196.536 82.6336C196.894 82.9677 197.42 82.9865 197.71 82.6756Z" fill="#283847"/>
<path d="M166.439 127.407L169.767 92.8099L175.236 109.565L166.439 127.407Z" fill="#38518F"/>
<path opacity="0.5" fill-rule="evenodd" clip-rule="evenodd" d="M139.711 122.79L142.231 114.949L142.707 115.102L140.186 122.942L139.711 122.79Z" fill="#3A5189"/>
<path d="M134.105 141.436C143.719 151.093 155.056 146.365 159.27 140.232C159.447 139.976 159.634 139.691 159.83 139.388C158.294 137.313 156.255 135.664 153.905 134.595C151.556 133.526 148.973 133.073 146.399 133.278C143.826 133.483 141.347 134.339 139.197 135.766C137.046 137.194 135.294 139.145 134.105 141.436V141.436Z" fill="#3A5189"/>
<path opacity="0.5" fill-rule="evenodd" clip-rule="evenodd" d="M244.535 128.941L217.508 107.239L217.821 106.85L244.848 128.552L244.535 128.941Z" fill="#3A5189"/>
<path d="M263.417 139.098C260.937 137.289 257.941 136.324 254.871 136.345C247.404 136.345 241.383 141.796 241.383 148.526C241.385 149.255 241.459 149.981 241.603 150.696C245.353 151.151 249.156 150.879 252.804 149.893C258.53 148.325 261.695 143.537 263.417 139.098Z" fill="#3A5189"/>
<path d="M205.008 112.664L218.206 108.291L207.551 117.023L205.008 112.664Z" fill="#38518F"/>
<path d="M126.657 96.5716L117.822 82.911C117.822 82.911 114.83 77.3991 111.941 75.3129C110.245 74.0115 108.657 72.5739 107.195 71.0145C106.974 71.0857 106.773 71.2056 106.606 71.3653C106.438 71.525 106.309 71.7204 106.227 71.937C106.145 72.1536 106.114 72.3858 106.134 72.6164C106.155 72.8469 106.227 73.0699 106.345 73.2687C107.125 74.9816 109.701 77.9358 109.701 77.9358C109.701 77.9358 103.116 76.4564 100.651 75.7563C98.1872 75.0562 94.0242 73.7308 93.6508 75.3923C93.2494 77.2218 102.952 79.3593 102.952 79.3593C102.952 79.3593 100.535 79.868 101.468 82.4209C99.942 83.2423 99.8394 85.2959 101.627 86.0566C100.619 87.2887 101.543 89.1882 104.156 89.1882C106.518 90.5883 108.516 91.7878 112.273 90.4157L117.434 103.138L126.657 96.5716Z" fill="#FF6969"/>
<path fill-rule="evenodd" clip-rule="evenodd" d="M108.028 81.0418L102.889 79.595L103.025 79.1143L108.163 80.5611L108.028 81.0418Z" fill="#B82C2C"/>
<path fill-rule="evenodd" clip-rule="evenodd" d="M107.673 84.1666L101.415 82.6591L101.531 82.1736L107.79 83.6811L107.673 84.1666Z" fill="#B82C2C"/>
<path fill-rule="evenodd" clip-rule="evenodd" d="M107.306 86.6324L101.617 86.301L101.646 85.8025L107.335 86.1339L107.306 86.6324Z" fill="#B82C2C"/>
<path fill-rule="evenodd" clip-rule="evenodd" d="M107.392 89.1147L104.185 89.4321L104.136 88.9351L107.343 88.6178L107.392 89.1147Z" fill="#B82C2C"/>
<path fill-rule="evenodd" clip-rule="evenodd" d="M108.569 80.5774C108.877 80.7609 109.132 81.022 109.308 81.3346C109.484 81.6472 109.576 82.0005 109.573 82.3593C109.57 82.7181 109.474 83.07 109.293 83.3799C109.157 83.6133 108.976 83.8168 108.763 83.9795C108.923 84.2557 109.07 84.631 109.1 85.031C109.135 85.503 109.005 86.0127 108.55 86.4127C109.044 87.1322 109.058 87.7646 108.909 88.2393C108.83 88.4912 108.709 88.6883 108.609 88.8222C108.558 88.8894 108.512 88.9417 108.477 88.978C108.46 88.9962 108.446 89.0105 108.435 89.0207C108.43 89.0258 108.425 89.03 108.422 89.0331L108.417 89.037L108.416 89.0384L108.415 89.0389L108.415 89.0392C108.415 89.0393 108.415 89.0394 108.25 88.852C108.085 88.6647 108.084 88.6648 108.084 88.6649L108.084 88.665L108.089 88.6601C108.095 88.6549 108.104 88.6462 108.115 88.634C108.138 88.6097 108.172 88.5719 108.21 88.5219C108.285 88.4213 108.375 88.2747 108.433 88.0903C108.543 87.7367 108.551 87.2005 108.008 86.5203L107.838 86.3081L108.064 86.157C108.514 85.8558 108.631 85.4572 108.602 85.068C108.572 84.6624 108.38 84.2732 108.219 84.0606L108.047 83.8346L108.293 83.6931C108.529 83.5577 108.725 83.3629 108.861 83.1283C108.998 82.8936 109.071 82.6272 109.074 82.3556C109.076 82.0839 109.006 81.8165 108.873 81.5798C108.74 81.3431 108.547 81.1455 108.313 81.0065L108.569 80.5774ZM108.084 88.6651L108.084 88.6653L108.084 88.6656C108.083 88.6657 108.084 88.6655 108.084 88.6651Z" fill="#B82C2C"/>
<path fill-rule="evenodd" clip-rule="evenodd" d="M110.852 85.9615C109.962 85.2307 109.301 84.2604 108.945 83.1654L109.42 83.0112C109.746 84.0155 110.353 84.9054 111.169 85.5756C111.985 86.2459 112.976 86.6685 114.024 86.7934L113.965 87.2893C112.822 87.1531 111.742 86.6923 110.852 85.9615Z" fill="#B82C2C"/>
<path d="M126.923 97.169L114.877 110.512L112.221 105.117L126.923 97.169Z" fill="#3A5189"/>
<path d="M215.919 106.512L212.069 101.934C212.069 101.934 213.871 92.5205 208.279 88.6608C208.279 88.6608 210.109 94.9147 207.043 96.3055C203.976 97.6963 198.53 96.8095 193.597 92.5718L193.354 90.607C193.354 90.607 192.001 93.7526 193.947 95.12C193.242 96.7675 192.897 98.177 194.483 98.9564C193.55 100.17 193.975 102.069 195.17 102.55C194.049 104.65 196.056 106.284 198.203 106.508C199.603 106.657 204.737 106.797 204.737 106.797L208.471 111.133L215.919 106.512Z" fill="#FF6969"/>
<path d="M175.237 93.552H188.855C188.855 93.552 194.33 110.111 186.111 110.111C177.892 110.111 175.237 93.552 175.237 93.552Z" fill="#FFCC40"/>
<path d="M210.459 34.7837C210.459 34.7837 214.146 28.9032 215.266 25.4495C216.386 21.9959 212.653 22.1359 212.653 22.1359C213.166 18.3088 211.813 16.7687 208.826 16.6754C208.219 12.9884 204.065 11.1215 201.452 13.6417C197.718 9.90807 191.926 12.7083 192.066 18.0288C187.446 17.0487 185.77 27.433 192.491 29.0572L205.185 36.2585L210.459 34.7837Z" fill="#330909"/>
<path d="M194.124 23.3028C194.124 23.3028 201.335 27.2232 207.145 26.0331C207.145 26.0331 206.725 28.2733 208.615 29.3934L206.515 34.9239L207.495 35.2039C207.495 35.2039 209.665 30.5135 212.256 31.4235C214.846 32.3336 211.836 41.0891 207.215 38.4989L210.995 49.3499L220.586 52.0801C220.586 52.0801 217.086 61.461 201.685 61.461C199.356 61.4717 197.048 61.0192 194.896 60.1298C192.744 59.2405 190.79 57.932 189.149 56.2805L197.134 53.2002L194.894 45.9896C194.894 45.9896 189.639 46.0362 188.029 42.0692C186.419 38.1022 190.059 32.8937 190.059 32.8937L194.124 23.3028Z" fill="#FF6969"/>
<path d="M194.913 45.9895C198.236 46.0221 202.511 43.5719 204.121 41.9291C204.121 41.9291 200.975 50.2365 196.387 50.7359L194.913 45.9895Z" fill="#B82C2C"/>
<path fill-rule="evenodd" clip-rule="evenodd" d="M198.251 56.7572L196.92 53.2896L197.387 53.1107L198.717 56.5784L198.251 56.7572Z" fill="#B82C2C"/>
<path d="M195.907 35.2598C195.907 35.2598 198.88 35.9972 199.346 37.262H191.361C191.361 37.262 192.15 35.6332 193.76 35.5819C194.116 35.7102 194.499 35.748 194.874 35.6918C195.249 35.6356 195.603 35.4872 195.907 35.2598V35.2598Z" fill="#330909"/>
<path d="M193.443 37.2619H197.597C197.597 37.2619 198.04 42.3957 196.523 42.3957C195.006 42.3957 193.443 37.2619 193.443 37.2619Z" fill="white"/>
<path d="M193.839 30.3688C193.839 31.0922 193.541 31.6803 193.172 31.6803C192.803 31.6803 192.509 31.0922 192.509 30.3688C192.509 29.6454 192.808 29.0574 193.172 29.0574C193.536 29.0574 193.839 29.6454 193.839 30.3688Z" fill="#330909"/>
<path d="M199.178 32.5015C199.547 32.5015 199.846 31.9144 199.846 31.1901C199.846 30.4658 199.547 29.8786 199.178 29.8786C198.81 29.8786 198.511 30.4658 198.511 31.1901C198.511 31.9144 198.81 32.5015 199.178 32.5015Z" fill="#330909"/>
<path fill-rule="evenodd" clip-rule="evenodd" d="M190.906 27.7977L196.087 28.4327L196.104 28.6345L195.856 28.6559C196.104 28.6345 196.104 28.6343 196.104 28.6345L196.105 28.635L196.105 28.6361L196.105 28.6394L196.106 28.6514C196.107 28.6616 196.108 28.6763 196.109 28.6952C196.111 28.7329 196.114 28.7874 196.116 28.8561C196.121 28.9935 196.123 29.1881 196.114 29.4199C196.096 29.8817 196.033 30.4996 195.85 31.1081C195.667 31.7148 195.358 32.3331 194.834 32.7698C194.302 33.2132 193.575 33.4475 192.605 33.3281C191.636 33.2089 191.01 32.8079 190.644 32.244C190.285 31.6911 190.201 31.0181 190.232 30.3934C190.264 29.7659 190.414 29.159 190.554 28.7133C190.625 28.4894 190.693 28.3038 190.744 28.1737C190.77 28.1086 190.791 28.0572 190.806 28.0218C190.813 28.004 190.819 27.9902 190.823 27.9807L190.828 27.9696L190.83 27.9665L190.83 27.9655C190.83 27.9654 190.83 27.965 191.058 28.0678L190.83 27.965L190.906 27.7977ZM191.216 28.3387C191.213 28.3444 191.211 28.3501 191.209 28.356C191.161 28.4773 191.097 28.6518 191.031 28.8628C190.898 29.2869 190.76 29.8492 190.731 30.4187C190.702 30.9912 190.784 31.5433 191.063 31.9722C191.334 32.3901 191.815 32.7277 192.666 32.8325C193.516 32.9372 194.102 32.7304 194.515 32.3862C194.936 32.0354 195.204 31.5195 195.372 30.9641C195.538 30.4105 195.598 29.8383 195.615 29.4005C195.623 29.1857 195.621 29.0053 195.617 28.8782L191.216 28.3387Z" fill="white"/>
<path fill-rule="evenodd" clip-rule="evenodd" d="M197.239 28.5723L202.421 29.2074L202.438 29.4091L202.189 29.4306C202.438 29.4091 202.438 29.409 202.438 29.4091L202.438 29.4108L202.438 29.4141L202.439 29.4261C202.44 29.4363 202.441 29.451 202.442 29.4699C202.445 29.5077 202.447 29.5622 202.45 29.631C202.454 29.7685 202.456 29.9633 202.447 30.1953C202.43 30.6575 202.367 31.276 202.183 31.8851C202.001 32.4923 201.692 33.1111 201.168 33.5483C200.636 33.9922 199.908 34.2268 198.938 34.1075C197.969 33.9882 197.343 33.5869 196.977 33.0225C196.618 32.4692 196.534 31.7956 196.566 31.1704C196.597 30.5423 196.748 29.9349 196.888 29.4887C196.958 29.2646 197.026 29.0789 197.077 28.9486C197.103 28.8835 197.124 28.8321 197.139 28.7966C197.147 28.7788 197.153 28.765 197.157 28.7555L197.162 28.7443L197.163 28.7412L197.164 28.7403C197.164 28.7402 197.164 28.7398 197.391 28.8425L197.164 28.7398L197.239 28.5723ZM197.549 29.1134C197.547 29.1191 197.545 29.1249 197.542 29.1308C197.495 29.2522 197.431 29.4269 197.364 29.6381C197.231 30.0626 197.093 30.6255 197.064 31.1957C197.035 31.7688 197.118 32.3215 197.396 32.7509C197.667 33.1692 198.148 33.5071 198.999 33.6118C199.85 33.7165 200.435 33.5095 200.848 33.1649C201.269 32.8137 201.538 32.2972 201.705 31.7412C201.872 31.187 201.931 30.6142 201.948 30.1759C201.957 29.9608 201.955 29.7802 201.951 29.6529L197.549 29.1134Z" fill="white"/>
<path fill-rule="evenodd" clip-rule="evenodd" d="M196.978 30.2713L195.802 30.1266L195.863 29.631L197.039 29.7757L196.978 30.2713Z" fill="white"/>
<path fill-rule="evenodd" clip-rule="evenodd" d="M209.382 32.6685L202.059 31.4364L202.142 30.9439L209.465 32.176L209.382 32.6685Z" fill="white"/>
<path fill-rule="evenodd" clip-rule="evenodd" d="M203.106 27.7384L198.532 27.9298L198.491 26.9365L203.064 26.7452L203.106 27.7384Z" fill="#330909"/>
<path fill-rule="evenodd" clip-rule="evenodd" d="M197.336 27.1289C197.336 27.129 197.336 27.1291 197.008 27.503C196.681 27.877 196.681 27.8771 196.681 27.8772L196.679 27.875L196.665 27.8632C196.652 27.8522 196.631 27.8351 196.603 27.8131C196.548 27.7689 196.466 27.7049 196.36 27.629C196.147 27.4767 195.844 27.2799 195.485 27.1007C194.751 26.7347 193.863 26.4822 193.034 26.7206L192.759 25.7653C193.942 25.4249 195.11 25.8025 195.929 26.2112C196.346 26.4194 196.694 26.6461 196.938 26.8205C197.06 26.908 197.157 26.9831 197.225 27.0372C197.259 27.0643 197.285 27.0862 197.304 27.1019C197.313 27.1097 197.321 27.1159 197.326 27.1205L197.332 27.1261L197.335 27.1279L197.336 27.1289Z" fill="#330909"/>
<path fill-rule="evenodd" clip-rule="evenodd" d="M195.929 30.2605L196.379 30.4772L194.013 35.3912C194.309 35.4513 194.615 35.4539 194.913 35.3978C195.306 35.324 195.674 35.151 195.981 34.8954L196.3 35.2792C195.928 35.5893 195.482 35.799 195.006 35.8886C194.529 35.9781 194.038 35.9445 193.578 35.7908L193.31 35.7009L195.929 30.2605Z" fill="#330909"/>
<path fill-rule="evenodd" clip-rule="evenodd" d="M209.011 34.8286C209.047 34.7696 209.091 34.6993 209.141 34.6209C209.297 34.381 209.516 34.0686 209.776 33.7729C210.037 33.4751 210.328 33.2064 210.624 33.0414C210.917 32.8775 211.19 32.8287 211.444 32.9189C211.566 32.9624 211.643 33.0288 211.694 33.1093C211.748 33.1936 211.783 33.3076 211.794 33.4552C211.815 33.7558 211.733 34.1399 211.598 34.5371C211.464 34.9288 211.288 35.3089 211.144 35.5931C211.072 35.7346 211.009 35.8512 210.964 35.932C210.941 35.9725 210.923 36.0039 210.911 36.025L210.897 36.0488L210.894 36.0545L210.893 36.0558C210.893 36.0558 210.893 36.056 211.108 36.184C211.322 36.312 211.322 36.3119 211.322 36.3118L211.322 36.3111L211.324 36.3091L211.328 36.3019L211.344 36.2751C211.357 36.2519 211.376 36.2182 211.4 36.1753C211.448 36.0896 211.514 35.9672 211.59 35.8189C211.739 35.5232 211.927 35.1202 212.07 34.6981C212.212 34.2815 212.321 33.8211 212.292 33.4195C212.277 33.2159 212.227 33.0144 212.115 32.8402C212.001 32.6623 211.833 32.5274 211.611 32.4484C211.176 32.2936 210.749 32.3994 210.38 32.6052C210.013 32.8099 209.679 33.1261 209.4 33.4437C209.12 33.7635 208.886 34.0972 208.722 34.3495C208.64 34.4761 208.576 34.583 208.531 34.6588C208.509 34.6966 208.492 34.7268 208.48 34.7477L208.466 34.772L208.463 34.7786L208.462 34.7805L208.461 34.781C208.461 34.7811 208.461 34.7814 208.681 34.9005L208.461 34.781L208.351 34.9839L208.544 35.1096L208.547 35.1112L208.556 35.1173C208.564 35.1228 208.576 35.1312 208.592 35.1422C208.624 35.1642 208.67 35.1966 208.724 35.2372C208.833 35.3189 208.974 35.4315 209.105 35.5582C209.239 35.6872 209.352 35.8191 209.416 35.9383C209.481 36.0604 209.473 36.1214 209.459 36.1509C209.449 36.171 209.412 36.2167 209.261 36.2378C209.116 36.2579 208.928 36.2454 208.729 36.2134C208.533 36.1819 208.343 36.1342 208.2 36.0938C208.129 36.0738 208.07 36.0557 208.03 36.0428C208.01 36.0364 207.994 36.0312 207.984 36.0278L207.972 36.0239L207.97 36.023L207.969 36.0228C207.969 36.0229 207.969 36.0229 207.887 36.2586C207.805 36.4944 207.805 36.4944 207.805 36.4945L207.806 36.4946L207.807 36.4951L207.811 36.4964L207.825 36.5013C207.838 36.5054 207.855 36.5113 207.878 36.5185C207.923 36.5328 207.987 36.5526 208.064 36.5744C208.218 36.6179 208.428 36.6708 208.65 36.7064C208.868 36.7415 209.113 36.7626 209.33 36.7324C209.539 36.7031 209.791 36.6146 209.909 36.3664C210.024 36.1275 209.954 35.8846 209.855 35.7017C209.756 35.5159 209.601 35.3419 209.452 35.1985C209.3 35.0527 209.142 34.9264 209.023 34.8373C209.019 34.8344 209.015 34.8314 209.011 34.8286Z" fill="#330909"/>
<path opacity="0.5" fill-rule="evenodd" clip-rule="evenodd" d="M210.315 121.108C213.778 126.723 218.428 133.856 223.182 139.938C232.623 152.015 246.779 151.595 252.736 149.656L252.89 150.131C246.805 152.112 232.399 152.541 222.789 140.246C218.018 134.142 213.357 126.992 209.89 121.37C208.156 118.558 206.72 116.128 205.718 114.4C205.217 113.536 204.824 112.848 204.556 112.376C204.422 112.139 204.32 111.957 204.25 111.834C204.216 111.772 204.19 111.725 204.172 111.694L204.146 111.646C204.145 111.646 204.145 111.646 204.364 111.525C204.582 111.404 204.582 111.404 204.582 111.404L204.608 111.451C204.626 111.482 204.652 111.528 204.686 111.59C204.755 111.712 204.857 111.894 204.99 112.129C205.257 112.601 205.649 113.287 206.15 114.15C207.15 115.874 208.584 118.301 210.315 121.108Z" fill="#3A5189"/>
<path opacity="0.5" fill-rule="evenodd" clip-rule="evenodd" d="M168.147 87.0339L175.474 109.487L174.999 109.642L167.672 87.1889L168.147 87.0339Z" fill="#3A5189"/>
<path opacity="0.5" fill-rule="evenodd" clip-rule="evenodd" d="M238.45 123.982L230.936 85.292L231.426 85.1968L238.94 123.887L238.45 123.982Z" fill="#3A5189"/>
<path d="M203.664 113.112L219.439 107.885L216.965 105.117L201.844 110.638L203.664 113.112Z" fill="white"/>
<path d="M112.221 106.274L128.393 96.2589L126.362 93.1086L110.149 102.844L112.221 106.274Z" fill="white"/>
<path d="M190.288 171.843C198.368 171.843 204.919 170.181 204.919 168.132C204.919 166.083 198.368 164.422 190.288 164.422C182.207 164.422 175.656 166.083 175.656 168.132C175.656 170.181 182.207 171.843 190.288 171.843Z" fill="#DC8D64"/>
<path d="M180.03 144.022L181.649 167.698C181.649 168.235 185.509 168.674 190.269 168.674C195.03 168.674 198.894 168.235 198.894 167.698L200.514 144.031L180.03 144.022Z" fill="#FF5521"/>
<path d="M199.221 164.431C196.061 164.431 194.325 161.104 194.325 155.06C194.325 150.897 197.354 147.508 201.073 147.508C202.063 147.525 203.037 147.753 203.931 148.176C204.825 148.599 205.619 149.209 206.258 149.963C206.888 150.671 207.356 151.509 207.628 152.416C207.901 153.324 207.972 154.28 207.836 155.218C207.113 160.025 203.015 164.431 199.221 164.431ZM201.087 149.496C198.46 149.496 196.322 151.993 196.322 155.064C196.322 156.8 196.532 162.452 199.235 162.452C201.741 162.452 205.255 159.092 205.866 154.924C205.959 154.268 205.907 153.599 205.714 152.965C205.521 152.33 205.193 151.746 204.751 151.251C204.297 150.715 203.735 150.281 203.101 149.978C202.467 149.676 201.776 149.512 201.073 149.496H201.087Z" fill="#FF5521"/>
<path d="M188.057 142.262C187.259 140.204 186.227 139.178 187.123 136.779C188.019 134.38 189.191 133.633 189.27 131.463C189.251 130 188.817 128.573 188.019 127.346C188.019 127.346 191.944 127.444 191.982 132.149C192.01 135.738 188.495 136.513 188.057 142.262Z" fill="white"/>
<path d="M193.312 142.262C192.51 140.204 191.483 139.178 192.379 136.779C193.275 134.38 194.442 133.633 194.526 131.463C194.507 130 194.073 128.573 193.275 127.346C193.275 127.346 197.2 127.444 197.237 132.149C197.284 135.738 193.77 136.513 193.312 142.262Z" fill="white"/>
<path d="M101.566 124.835L97.212 116.948L92.8482 124.835C92.4183 125.614 91.7875 126.262 91.0217 126.714C90.2558 127.165 89.3829 127.403 88.4938 127.402H59.4551C58.1356 127.402 56.8702 127.927 55.9372 128.86C55.0041 129.793 54.48 131.058 54.48 132.377V168.025C54.48 169.344 55.0041 170.61 55.9372 171.543C56.8702 172.476 58.1356 173 59.4551 173H134.973C135.627 173 136.274 172.871 136.877 172.621C137.481 172.371 138.029 172.005 138.491 171.543C138.953 171.081 139.32 170.532 139.57 169.929C139.82 169.325 139.949 168.678 139.949 168.025V132.377C139.949 131.724 139.82 131.077 139.57 130.474C139.32 129.87 138.953 129.322 138.491 128.86C138.029 128.398 137.481 128.031 136.877 127.781C136.274 127.531 135.627 127.402 134.973 127.402H105.916C105.028 127.402 104.156 127.164 103.391 126.713C102.626 126.261 101.996 125.613 101.566 124.835Z" fill="#BEDBF7"/>
<path fill-rule="evenodd" clip-rule="evenodd" d="M79.4487 168.856V132.13H80.0181V168.856H79.4487Z" fill="white"/>
<path d="M66.3155 139.612C65.1787 139.739 64.0982 140.174 63.19 140.87C62.2819 141.566 61.5804 142.496 61.161 143.56C60.7416 144.624 60.6201 145.783 60.8096 146.911C60.9991 148.039 61.4924 149.094 62.2364 149.963C63.8451 151.918 65.1423 154.109 66.0821 156.46L66.7215 157.977C66.7462 158.039 66.7893 158.093 66.845 158.131C66.9008 158.169 66.9667 158.19 67.0342 158.19C67.1017 158.19 67.1676 158.169 67.2234 158.131C67.2792 158.093 67.3222 158.039 67.3469 157.977L68.1963 155.97C69.1747 153.745 70.4495 151.664 71.986 149.781C72.7575 148.804 73.2221 147.621 73.3211 146.38C73.4201 145.139 73.1491 143.897 72.5422 142.81C71.9354 141.723 71.0199 140.84 69.9116 140.274C68.8033 139.707 67.5519 139.481 66.3155 139.626V139.612ZM67.0342 148.316C66.5505 148.316 66.0777 148.172 65.6755 147.904C65.2734 147.635 64.9599 147.253 64.7748 146.806C64.5897 146.359 64.5413 145.867 64.6357 145.393C64.73 144.919 64.9629 144.483 65.3049 144.141C65.647 143.799 66.0827 143.566 66.5571 143.472C67.0315 143.377 67.5232 143.426 67.9701 143.611C68.417 143.796 68.7989 144.109 69.0676 144.512C69.3364 144.914 69.4798 145.387 69.4798 145.87C69.4798 146.191 69.4165 146.509 69.2936 146.806C69.1707 147.103 68.9906 147.372 68.7635 147.599C68.5364 147.827 68.2668 148.007 67.9701 148.13C67.6734 148.253 67.3554 148.316 67.0342 148.316V148.316Z" fill="url(#paint1_linear_159_4056)"/>
<path d="M90.1861 135.957V143.873H88.3542V137.427H86.771V135.957H90.1861Z" fill="#3A65C9"/>
<path d="M94.9538 144.008C94.2979 144.008 93.7136 143.846 93.201 143.522C92.6883 143.198 92.285 142.73 91.991 142.12C91.7045 141.502 91.5612 140.766 91.5612 139.915C91.5612 139.063 91.7045 138.331 91.991 137.721C92.285 137.103 92.6883 136.631 93.201 136.307C93.7136 135.983 94.2979 135.821 94.9538 135.821C95.6096 135.821 96.1939 135.983 96.7066 136.307C97.2192 136.631 97.6188 137.103 97.9053 137.721C98.1993 138.331 98.3463 139.063 98.3463 139.915C98.3463 140.766 98.1993 141.502 97.9053 142.12C97.6188 142.73 97.2192 143.198 96.7066 143.522C96.1939 143.846 95.6096 144.008 94.9538 144.008ZM94.9538 142.459C95.4363 142.459 95.8132 142.252 96.0846 141.837C96.3635 141.422 96.503 140.782 96.503 139.915C96.503 139.048 96.3635 138.407 96.0846 137.992C95.8132 137.578 95.4363 137.37 94.9538 137.37C94.4788 137.37 94.1019 137.578 93.8229 137.992C93.5515 138.407 93.4158 139.048 93.4158 139.915C93.4158 140.782 93.5515 141.422 93.8229 141.837C94.1019 142.252 94.4788 142.459 94.9538 142.459Z" fill="#3A65C9"/>
<path d="M100.277 139.903C99.9676 139.903 99.7076 139.798 99.4965 139.587C99.2854 139.376 99.1798 139.112 99.1798 138.795C99.1798 138.471 99.2854 138.211 99.4965 138.015C99.7076 137.811 99.9676 137.709 100.277 137.709C100.586 137.709 100.846 137.811 101.057 138.015C101.268 138.211 101.374 138.471 101.374 138.795C101.374 139.112 101.268 139.376 101.057 139.587C100.846 139.798 100.586 139.903 100.277 139.903ZM100.277 143.963C99.9676 143.963 99.7076 143.857 99.4965 143.646C99.2854 143.435 99.1798 143.171 99.1798 142.855C99.1798 142.531 99.2854 142.271 99.4965 142.074C99.7076 141.871 99.9676 141.769 100.277 141.769C100.586 141.769 100.846 141.871 101.057 142.074C101.268 142.271 101.374 142.531 101.374 142.855C101.374 143.171 101.268 143.435 101.057 143.646C100.846 143.857 100.586 143.963 100.277 143.963Z" fill="#3A65C9"/>
<path d="M105.894 139.18C106.587 139.293 107.119 139.553 107.488 139.96C107.858 140.359 108.042 140.857 108.042 141.453C108.042 141.912 107.922 142.338 107.681 142.73C107.439 143.115 107.07 143.424 106.572 143.658C106.082 143.891 105.479 144.008 104.763 144.008C104.205 144.008 103.655 143.937 103.112 143.793C102.577 143.643 102.121 143.431 101.744 143.16L102.456 141.758C102.758 141.984 103.104 142.161 103.496 142.289C103.896 142.41 104.303 142.47 104.718 142.47C105.178 142.47 105.539 142.384 105.803 142.21C106.067 142.029 106.199 141.777 106.199 141.453C106.199 140.804 105.705 140.48 104.718 140.48H103.881V139.27L105.509 137.427H102.139V135.957H107.681V137.144L105.894 139.18Z" fill="#3A65C9"/>
<path d="M112.281 144.008C111.625 144.008 111.041 143.846 110.528 143.522C110.015 143.198 109.612 142.73 109.318 142.12C109.031 141.502 108.888 140.766 108.888 139.915C108.888 139.063 109.031 138.331 109.318 137.721C109.612 137.103 110.015 136.631 110.528 136.307C111.041 135.983 111.625 135.821 112.281 135.821C112.937 135.821 113.521 135.983 114.034 136.307C114.546 136.631 114.946 137.103 115.232 137.721C115.526 138.331 115.673 139.063 115.673 139.915C115.673 140.766 115.526 141.502 115.232 142.12C114.946 142.73 114.546 143.198 114.034 143.522C113.521 143.846 112.937 144.008 112.281 144.008ZM112.281 142.459C112.763 142.459 113.14 142.252 113.412 141.837C113.691 141.422 113.83 140.782 113.83 139.915C113.83 139.048 113.691 138.407 113.412 137.992C113.14 137.578 112.763 137.37 112.281 137.37C111.806 137.37 111.429 137.578 111.15 137.992C110.879 138.407 110.743 139.048 110.743 139.915C110.743 140.782 110.879 141.422 111.15 141.837C111.429 142.252 111.806 142.459 112.281 142.459Z" fill="#3A65C9"/>
<path d="M128.37 151.416H87.3879C87.1056 151.416 86.8347 151.305 86.6338 151.106C86.4329 150.908 86.3181 150.639 86.3145 150.356C86.3145 150.072 86.4275 149.799 86.6289 149.597C86.8302 149.396 87.1032 149.283 87.3879 149.283H128.37C128.654 149.283 128.927 149.396 129.129 149.597C129.33 149.799 129.443 150.072 129.443 150.356C129.439 150.639 129.325 150.908 129.124 151.106C128.923 151.305 128.652 151.416 128.37 151.416V151.416Z" fill="white"/>
<path d="M128.37 157.203H87.3879C87.1032 157.203 86.8302 157.09 86.6289 156.889C86.4275 156.687 86.3145 156.414 86.3145 156.13V156.13C86.3145 155.845 86.4275 155.572 86.6289 155.371C86.8302 155.169 87.1032 155.056 87.3879 155.056H128.37C128.654 155.056 128.927 155.169 129.129 155.371C129.33 155.572 129.443 155.845 129.443 156.13C129.443 156.414 129.33 156.687 129.129 156.889C128.927 157.09 128.654 157.203 128.37 157.203Z" fill="white"/>
<path d="M101.534 167.922H87.3879C87.1032 167.922 86.8302 167.809 86.6289 167.608C86.4275 167.406 86.3145 167.133 86.3145 166.849V166.849C86.3145 166.564 86.4275 166.291 86.6289 166.09C86.8302 165.888 87.1032 165.775 87.3879 165.775H101.534C101.819 165.775 102.092 165.888 102.293 166.09C102.494 166.291 102.607 166.564 102.607 166.849C102.607 167.133 102.494 167.406 102.293 167.608C102.092 167.809 101.819 167.922 101.534 167.922Z" fill="white"/>
<path fill-rule="evenodd" clip-rule="evenodd" d="M40.4155 71.0144V42.3817H40.9149V71.0144H40.4155Z" fill="#BEDBF7"/>
<path d="M281.934 30.6407C284.504 28.0708 285.879 25.2797 285.006 24.4067C284.133 23.5337 281.342 24.9092 278.772 27.4791C276.202 30.049 274.827 32.8401 275.7 33.7131C276.573 34.5861 279.364 33.2105 281.934 30.6407Z" fill="#BEDBF7"/>
<path d="M272.952 79.3266C270.38 81.8982 267.589 83.275 266.716 82.4022C265.844 81.5295 267.216 78.7339 269.787 76.1623C272.359 73.5907 275.15 72.2186 276.023 73.0913C276.895 73.9641 275.523 76.7597 272.952 79.3266Z" fill="#BEDBF7"/>
<path d="M274.431 53.9749C266.077 62.329 258.638 68.4429 257.816 67.6168C256.995 66.7907 263.104 59.356 271.458 51.0019C279.812 42.6478 287.252 36.5339 288.073 37.36C288.894 38.1861 282.799 45.6208 274.431 53.9749Z" fill="#BEDBF7"/>
<defs>
<linearGradient id="paint0_linear_159_4056" x1="84.7314" y1="66.6157" x2="93.6654" y2="67.303" gradientUnits="userSpaceOnUse">
<stop stop-color="#6A3093"/>
<stop offset="1" stop-color="#A044FF"/>
</linearGradient>
<linearGradient id="paint1_linear_159_4056" x1="60.7227" y1="139.583" x2="74.275" y2="140.29" gradientUnits="userSpaceOnUse">
<stop stop-color="#6A3093"/>
<stop offset="1" stop-color="#A044FF"/>
</linearGradient>
</defs>
</svg>
