<svg width="18" height="17" viewBox="0 0 18 17" fill="none" xmlns="http://www.w3.org/2000/svg">
<g opacity="0.2">
<path d="M9 1.77771C5.15184 1.77771 1.80022 4.28417 0 8.00001C1.80022 11.7165 5.15184 14.2223 9 14.2223C12.8482 14.2223 16.1998 11.7165 18 8.00001C16.1998 4.28417 12.8482 1.77771 9 1.77771ZM9 11.889C6.92864 11.889 5.24993 10.1481 5.24993 8.00001C5.24993 5.85193 6.92864 4.11104 9 4.11104C11.0714 4.11104 12.7501 5.85193 12.7501 8.00001C12.7501 10.1481 11.0714 11.889 9 11.889Z" fill="black"/>
<path d="M9 10.3333C10.2426 10.3333 11.25 9.28865 11.25 7.99999C11.25 6.71133 10.2426 5.66666 9 5.66666C7.75736 5.66666 6.75 6.71133 6.75 7.99999C6.75 9.28865 7.75736 10.3333 9 10.3333Z" fill="black"/>
</g>
<rect x="1.47258" y="14.3287" width="20.0365" height="2.52277" rx="1.26138" transform="rotate(-45 1.47258 14.3287)" fill="#C4C4C4" stroke="white"/>
</svg>
