<svg width="16" height="16" viewBox="0 0 16 16" xmlns="http://www.w3.org/2000/svg">
<path fill-rule="evenodd" clip-rule="evenodd" d="M3.33333 3.41669C3.01117 3.41669 2.75 3.67785 2.75 4.00002V13.3334C2.75 13.6555 3.01117 13.9167 3.33333 13.9167H12.6667C12.9888 13.9167 13.25 13.6555 13.25 13.3334V4.00002C13.25 3.67785 12.9888 3.41669 12.6667 3.41669H3.33333ZM1.25 4.00002C1.25 2.84943 2.18274 1.91669 3.33333 1.91669H12.6667C13.8173 1.91669 14.75 2.84943 14.75 4.00002V13.3334C14.75 14.4839 13.8173 15.4167 12.6667 15.4167H3.33333C2.18274 15.4167 1.25 14.4839 1.25 13.3334V4.00002Z"/>
<path fill-rule="evenodd" clip-rule="evenodd" d="M10.6667 0.583313C11.081 0.583313 11.4167 0.919099 11.4167 1.33331V3.99998C11.4167 4.41419 11.081 4.74998 10.6667 4.74998C10.2525 4.74998 9.91675 4.41419 9.91675 3.99998V1.33331C9.91675 0.919099 10.2525 0.583313 10.6667 0.583313Z"/>
<path fill-rule="evenodd" clip-rule="evenodd" d="M5.33325 0.583313C5.74747 0.583313 6.08325 0.919099 6.08325 1.33331V3.99998C6.08325 4.41419 5.74747 4.74998 5.33325 4.74998C4.91904 4.74998 4.58325 4.41419 4.58325 3.99998V1.33331C4.58325 0.919099 4.91904 0.583313 5.33325 0.583313Z"/>
<path fill-rule="evenodd" clip-rule="evenodd" d="M1.25 6.66669C1.25 6.25247 1.58579 5.91669 2 5.91669H14C14.4142 5.91669 14.75 6.25247 14.75 6.66669C14.75 7.0809 14.4142 7.41669 14 7.41669H2C1.58579 7.41669 1.25 7.0809 1.25 6.66669Z"/>
</svg>
