<svg width="22" height="22" viewBox="0 0 22 22" fill="none" xmlns="http://www.w3.org/2000/svg">
<path d="M9.46232 15.7195L7.3413 17.8405C6.46197 18.7198 5.03795 18.7198 4.15936 17.8407C3.28059 16.9619 3.28059 15.5377 4.15918 14.6591L8.40197 10.4164C9.28056 9.53773 10.7047 9.53773 11.5833 10.4164C11.8762 10.7092 12.3511 10.7092 12.644 10.4164C12.9369 10.1235 12.9369 9.64858 12.644 9.35569C11.1796 7.89128 8.80571 7.89128 7.3413 9.35569L3.09855 13.5984C1.63414 15.0628 1.63414 17.4367 3.09855 18.9011C4.56278 20.3663 6.93682 20.3663 8.402 18.9011L10.523 16.7801C10.8159 16.4872 10.8159 16.0123 10.523 15.7194C10.2301 15.4265 9.75521 15.4266 9.46232 15.7195Z" fill="white"/>
<path d="M18.9015 3.0983C17.4371 1.6339 15.0625 1.6339 13.5981 3.0983L11.0533 5.64307C10.7604 5.93596 10.7604 6.41085 11.0533 6.70374C11.3462 6.99663 11.8211 6.99663 12.114 6.70374L14.6587 4.15897C15.5373 3.28035 16.9622 3.28035 17.8408 4.15897C18.7194 5.03757 18.7194 6.46172 17.8408 7.34032L13.1743 12.0069C12.2957 12.8855 10.8716 12.8855 9.99298 12.0069C9.70009 11.714 9.2252 11.714 8.93231 12.0069C8.63942 12.2998 8.63942 12.7747 8.93231 13.0675C10.3967 14.532 12.7706 14.532 14.235 13.0675L18.9015 8.40102C20.3659 6.93662 20.3659 4.56271 18.9015 3.0983Z" fill="white"/>
</svg>
