<svg width="16" height="16" viewBox="0 0 16 16" xmlns="http://www.w3.org/2000/svg">
<path fill-rule="evenodd" clip-rule="evenodd" d="M4.58325 4C4.58325 3.58579 4.91904 3.25 5.33325 3.25H13.9999C14.4141 3.25 14.7499 3.58579 14.7499 4C14.7499 4.41421 14.4141 4.75 13.9999 4.75H5.33325C4.91904 4.75 4.58325 4.41421 4.58325 4Z"/>
<path fill-rule="evenodd" clip-rule="evenodd" d="M4.58325 8C4.58325 7.58579 4.91904 7.25 5.33325 7.25H13.9999C14.4141 7.25 14.7499 7.58579 14.7499 8C14.7499 8.41421 14.4141 8.75 13.9999 8.75H5.33325C4.91904 8.75 4.58325 8.41421 4.58325 8Z"/>
<path fill-rule="evenodd" clip-rule="evenodd" d="M4.58325 12C4.58325 11.5858 4.91904 11.25 5.33325 11.25H13.9999C14.4141 11.25 14.7499 11.5858 14.7499 12C14.7499 12.4142 14.4141 12.75 13.9999 12.75H5.33325C4.91904 12.75 4.58325 12.4142 4.58325 12Z"/>
<path fill-rule="evenodd" clip-rule="evenodd" d="M1.25 4C1.25 3.58579 1.58579 3.25 2 3.25H2.00646C2.42068 3.25 2.75646 3.58579 2.75646 4C2.75646 4.41421 2.42068 4.75 2.00646 4.75H2C1.58579 4.75 1.25 4.41421 1.25 4Z"/>
<path fill-rule="evenodd" clip-rule="evenodd" d="M1.25 8C1.25 7.58579 1.58579 7.25 2 7.25H2.00646C2.42068 7.25 2.75646 7.58579 2.75646 8C2.75646 8.41421 2.42068 8.75 2.00646 8.75H2C1.58579 8.75 1.25 8.41421 1.25 8Z"/>
<path fill-rule="evenodd" clip-rule="evenodd" d="M1.25 12C1.25 11.5858 1.58579 11.25 2 11.25H2.00646C2.42068 11.25 2.75646 11.5858 2.75646 12C2.75646 12.4142 2.42068 12.75 2.00646 12.75H2C1.58579 12.75 1.25 12.4142 1.25 12Z"/>
</svg>
