<svg width="110" height="110" viewBox="0 0 110 110" fill="none" xmlns="http://www.w3.org/2000/svg">
<circle cx="55" cy="55" r="55" fill="#7DDF81"/>
<path d="M63.1775 42.5067L51.9839 56.1629L44.6169 49.4646C44.09 48.9686 43.4752 48.5872 42.8085 48.3426C42.1417 48.0981 41.4364 47.9954 40.7336 48.0404C40.0307 48.0855 39.3445 48.2774 38.715 48.605C38.0854 48.9326 37.5251 49.3893 37.0668 49.9485C36.6084 50.5077 36.2612 51.1581 36.0454 51.8619C35.8296 52.5657 35.7494 53.3087 35.8097 54.0476C35.87 54.7864 36.0695 55.5064 36.3965 56.1654C36.7235 56.8244 37.1715 57.4093 37.7143 57.8859L49.1095 68.2467C50.178 69.2179 51.5661 69.7057 52.9687 69.6029C54.3714 69.5001 55.6736 68.8152 56.589 67.6986L71.2339 49.8318C72.1205 48.711 72.5506 47.2655 72.4315 45.8065C72.3125 44.3474 71.6539 42.9917 70.5975 42.0312C69.5411 41.0707 68.1715 40.5823 66.7837 40.6712C65.3958 40.7602 64.1008 41.4193 63.1775 42.5067Z" fill="white" stroke="#7DDF81" stroke-width="8"/>
</svg>
