<svg width="12" height="12" viewBox="0 0 12 12" fill="none" xmlns="http://www.w3.org/2000/svg">
<mask id="path-1-inside-1_305_14379" fill="white">
<path fill-rule="evenodd" clip-rule="evenodd" d="M7.28613 4.71429V0H4.7147L4.7147 4.71429H0V7.28571H4.7147L4.7147 12H7.28613V7.28571H12V4.71429H7.28613Z"/>
</mask>
<path fill-rule="evenodd" clip-rule="evenodd" d="M7.28613 4.71429V0H4.7147L4.7147 4.71429H0V7.28571H4.7147L4.7147 12H7.28613V7.28571H12V4.71429H7.28613Z" fill="url(#paint0_linear_305_14379)"/>
<path d="M7.28613 0H7.78613V-0.5H7.28613V0ZM7.28613 4.71429H6.78613V5.21429H7.28613V4.71429ZM4.7147 0V-0.5H4.2147V-5.05736e-08L4.7147 0ZM4.7147 4.71429V5.21429H5.2147V4.71429H4.7147ZM0 4.71429V4.21429H-0.5V4.71429H0ZM0 7.28571H-0.5V7.78571H0V7.28571ZM4.7147 7.28571H5.2147V6.78571H4.7147V7.28571ZM4.7147 12H4.2147V12.5H4.7147V12ZM7.28613 12V12.5H7.78613V12H7.28613ZM7.28613 7.28571V6.78571H6.78613V7.28571H7.28613ZM12 7.28571V7.78571H12.5V7.28571H12ZM12 4.71429H12.5V4.21429H12V4.71429ZM6.78613 0V4.71429H7.78613V0H6.78613ZM4.7147 0.5H7.28613V-0.5H4.7147V0.5ZM5.2147 4.71429L5.2147 5.05736e-08L4.2147 -5.05736e-08L4.2147 4.71429H5.2147ZM0 5.21429H4.7147V4.21429H0V5.21429ZM0.5 7.28571V4.71429H-0.5V7.28571H0.5ZM4.7147 6.78571H0V7.78571H4.7147V6.78571ZM5.2147 12L5.2147 7.28571H4.2147L4.2147 12H5.2147ZM7.28613 11.5H4.7147V12.5H7.28613V11.5ZM6.78613 7.28571V12H7.78613V7.28571H6.78613ZM12 6.78571H7.28613V7.78571H12V6.78571ZM11.5 4.71429V7.28571H12.5V4.71429H11.5ZM7.28613 5.21429H12V4.21429H7.28613V5.21429Z" fill="white" mask="url(#path-1-inside-1_305_14379)"/>
<defs>
<linearGradient id="paint0_linear_305_14379" x1="0" y1="0" x2="12.8472" y2="0.988403" gradientUnits="userSpaceOnUse">
<stop stop-color="#6A3093"/>
<stop offset="1" stop-color="#A044FF"/>
</linearGradient>
</defs>
</svg>
