<svg width="11" height="9" viewBox="0 0 11 9" fill="none" xmlns="http://www.w3.org/2000/svg">
<path d="M4.43487 4.94163L4.7464 5.22488L5.01331 4.89924L8.11117 1.11982C8.29853 0.900463 8.55656 0.771627 8.82856 0.754196C9.10159 0.736698 9.37538 0.832318 9.59019 1.02762C9.80567 1.22354 9.94361 1.50394 9.96857 1.80981C9.99343 2.11458 9.90352 2.41296 9.7238 2.6415L5.6701 7.58705C5.67008 7.58707 5.67007 7.58708 5.67006 7.5871C5.48393 7.81409 5.22337 7.94894 4.94749 7.96915C4.67159 7.98937 4.39414 7.89393 4.1769 7.69647L1.02086 4.82692L1.0209 4.82687L1.01568 4.82229C0.905226 4.72531 0.812921 4.60527 0.745083 4.46856C0.677233 4.33182 0.635543 4.18176 0.62294 4.02727C0.610336 3.87277 0.627145 3.71784 0.671955 3.57172C0.716757 3.42563 0.788429 3.29195 0.88178 3.17806C0.975093 3.06422 1.08811 2.9725 1.21356 2.90722C1.33896 2.84196 1.47489 2.80409 1.61358 2.7952C1.75227 2.78631 1.89204 2.80652 2.02495 2.85527L2.16268 2.47973L2.02495 2.85527C2.15793 2.90404 2.28199 2.98064 2.38937 3.08172L2.38932 3.08177L2.39446 3.08643L4.43487 4.94163Z" fill="white" stroke="#853AC8" stroke-width="0.8"/>
</svg>
