<svg width="18" height="18" viewBox="0 0 18 18" fill="none" xmlns="http://www.w3.org/2000/svg">
<path fill-rule="evenodd" clip-rule="evenodd" d="M1.70721 0.292893C1.31669 -0.0976311 0.683522 -0.0976311 0.292998 0.292893C-0.0975263 0.683417 -0.097526 1.31658 0.292998 1.70711L7.36406 8.77817L0.292893 15.8493C-0.097631 16.2399 -0.0976311 16.873 0.292893 17.2635C0.683417 17.6541 1.31658 17.6541 1.70711 17.2635L8.77827 10.1924L15.8493 17.2635C16.2399 17.654 16.873 17.654 17.2636 17.2635C17.6541 16.8729 17.6541 16.2398 17.2636 15.8492L10.1925 8.77817L17.2635 1.7072C17.654 1.31668 17.654 0.683511 17.2635 0.292986C16.8729 -0.0975381 16.2398 -0.0975378 15.8492 0.292986L8.77827 7.36396L1.70721 0.292893Z" fill="white"/>
</svg>
